<mxfile host="app.diagrams.net" modified="2024-03-20T03:09:30.958Z" agent="Mozilla/5.0 (Windows NT 10.0; Win64; x64) AppleWebKit/537.36 (KHTML, like Gecko) Chrome/122.0.0.0 Safari/537.36" etag="HBolAjrlx7DqBtxP-rSK" version="24.0.7" type="google" pages="8">
  <diagram id="C5RBs43oDa-KdzZeNtuy" name="Class_Diagram">
    <mxGraphModel grid="1" page="1" gridSize="10" guides="1" tooltips="1" connect="1" arrows="1" fold="1" pageScale="1" pageWidth="827" pageHeight="1169" math="0" shadow="0">
      <root>
        <mxCell id="WIyWlLk6GJQsqaUBKTNV-0" />
        <mxCell id="WIyWlLk6GJQsqaUBKTNV-1" parent="WIyWlLk6GJQsqaUBKTNV-0" />
        <mxCell id="zkfFHV4jXpPFQw0GAbJ--0" value="Shopping cart" style="swimlane;fontStyle=2;align=center;verticalAlign=top;childLayout=stackLayout;horizontal=1;startSize=26;horizontalStack=0;resizeParent=1;resizeLast=0;collapsible=1;marginBottom=0;rounded=0;shadow=0;strokeWidth=1;" vertex="1" parent="WIyWlLk6GJQsqaUBKTNV-1">
          <mxGeometry x="40" y="320" width="160" height="160" as="geometry">
            <mxRectangle x="230" y="140" width="160" height="26" as="alternateBounds" />
          </mxGeometry>
        </mxCell>
        <mxCell id="zkfFHV4jXpPFQw0GAbJ--1" value="-Product Name" style="text;align=left;verticalAlign=top;spacingLeft=4;spacingRight=4;overflow=hidden;rotatable=0;points=[[0,0.5],[1,0.5]];portConstraint=eastwest;" vertex="1" parent="zkfFHV4jXpPFQw0GAbJ--0">
          <mxGeometry y="26" width="160" height="26" as="geometry" />
        </mxCell>
        <mxCell id="zkfFHV4jXpPFQw0GAbJ--2" value="-Product ID" style="text;align=left;verticalAlign=top;spacingLeft=4;spacingRight=4;overflow=hidden;rotatable=0;points=[[0,0.5],[1,0.5]];portConstraint=eastwest;rounded=0;shadow=0;html=0;" vertex="1" parent="zkfFHV4jXpPFQw0GAbJ--0">
          <mxGeometry y="52" width="160" height="38" as="geometry" />
        </mxCell>
        <mxCell id="zkfFHV4jXpPFQw0GAbJ--4" value="" style="line;html=1;strokeWidth=1;align=left;verticalAlign=middle;spacingTop=-1;spacingLeft=3;spacingRight=3;rotatable=0;labelPosition=right;points=[];portConstraint=eastwest;" vertex="1" parent="zkfFHV4jXpPFQw0GAbJ--0">
          <mxGeometry y="90" width="160" height="2" as="geometry" />
        </mxCell>
        <mxCell id="zkfFHV4jXpPFQw0GAbJ--5" value="+Add product to cart()" style="text;align=left;verticalAlign=top;spacingLeft=4;spacingRight=4;overflow=hidden;rotatable=0;points=[[0,0.5],[1,0.5]];portConstraint=eastwest;" vertex="1" parent="zkfFHV4jXpPFQw0GAbJ--0">
          <mxGeometry y="92" width="160" height="18" as="geometry" />
        </mxCell>
        <mxCell id="LjyMUBsOFT2IWWdEBGXr-9" value="+remove product from cart()" style="text;align=left;verticalAlign=top;spacingLeft=4;spacingRight=4;overflow=hidden;rotatable=0;points=[[0,0.5],[1,0.5]];portConstraint=eastwest;" vertex="1" parent="zkfFHV4jXpPFQw0GAbJ--0">
          <mxGeometry y="110" width="160" height="24" as="geometry" />
        </mxCell>
        <mxCell id="LjyMUBsOFT2IWWdEBGXr-10" value="+checkOut()" style="text;align=left;verticalAlign=top;spacingLeft=4;spacingRight=4;overflow=hidden;rotatable=0;points=[[0,0.5],[1,0.5]];portConstraint=eastwest;" vertex="1" parent="zkfFHV4jXpPFQw0GAbJ--0">
          <mxGeometry y="134" width="160" height="20" as="geometry" />
        </mxCell>
        <mxCell id="zkfFHV4jXpPFQw0GAbJ--6" value="User" style="swimlane;fontStyle=0;align=center;verticalAlign=top;childLayout=stackLayout;horizontal=1;startSize=26;horizontalStack=0;resizeParent=1;resizeLast=0;collapsible=1;marginBottom=0;rounded=0;shadow=0;strokeWidth=1;" vertex="1" parent="WIyWlLk6GJQsqaUBKTNV-1">
          <mxGeometry x="280" y="120" width="160" height="130" as="geometry">
            <mxRectangle x="130" y="380" width="160" height="26" as="alternateBounds" />
          </mxGeometry>
        </mxCell>
        <mxCell id="zkfFHV4jXpPFQw0GAbJ--7" value="-Username" style="text;align=left;verticalAlign=top;spacingLeft=4;spacingRight=4;overflow=hidden;rotatable=0;points=[[0,0.5],[1,0.5]];portConstraint=eastwest;" vertex="1" parent="zkfFHV4jXpPFQw0GAbJ--6">
          <mxGeometry y="26" width="160" height="26" as="geometry" />
        </mxCell>
        <mxCell id="zkfFHV4jXpPFQw0GAbJ--8" value="-Password" style="text;align=left;verticalAlign=top;spacingLeft=4;spacingRight=4;overflow=hidden;rotatable=0;points=[[0,0.5],[1,0.5]];portConstraint=eastwest;rounded=0;shadow=0;html=0;" vertex="1" parent="zkfFHV4jXpPFQw0GAbJ--6">
          <mxGeometry y="52" width="160" height="26" as="geometry" />
        </mxCell>
        <mxCell id="zkfFHV4jXpPFQw0GAbJ--9" value="" style="line;html=1;strokeWidth=1;align=left;verticalAlign=middle;spacingTop=-1;spacingLeft=3;spacingRight=3;rotatable=0;labelPosition=right;points=[];portConstraint=eastwest;" vertex="1" parent="zkfFHV4jXpPFQw0GAbJ--6">
          <mxGeometry y="78" width="160" height="8" as="geometry" />
        </mxCell>
        <mxCell id="zkfFHV4jXpPFQw0GAbJ--10" value="+getSession()" style="text;align=left;verticalAlign=top;spacingLeft=4;spacingRight=4;overflow=hidden;rotatable=0;points=[[0,0.5],[1,0.5]];portConstraint=eastwest;fontStyle=4" vertex="1" parent="zkfFHV4jXpPFQw0GAbJ--6">
          <mxGeometry y="86" width="160" height="26" as="geometry" />
        </mxCell>
        <mxCell id="zkfFHV4jXpPFQw0GAbJ--13" value="Customer" style="swimlane;fontStyle=0;align=center;verticalAlign=top;childLayout=stackLayout;horizontal=1;startSize=26;horizontalStack=0;resizeParent=1;resizeLast=0;collapsible=1;marginBottom=0;rounded=0;shadow=0;strokeWidth=1;" vertex="1" parent="WIyWlLk6GJQsqaUBKTNV-1">
          <mxGeometry x="285" y="320" width="150" height="160" as="geometry">
            <mxRectangle x="340" y="380" width="170" height="26" as="alternateBounds" />
          </mxGeometry>
        </mxCell>
        <mxCell id="zkfFHV4jXpPFQw0GAbJ--14" value="-Name" style="text;align=left;verticalAlign=top;spacingLeft=4;spacingRight=4;overflow=hidden;rotatable=0;points=[[0,0.5],[1,0.5]];portConstraint=eastwest;" vertex="1" parent="zkfFHV4jXpPFQw0GAbJ--13">
          <mxGeometry y="26" width="150" height="26" as="geometry" />
        </mxCell>
        <mxCell id="LjyMUBsOFT2IWWdEBGXr-11" value="-billing/Address" style="text;align=left;verticalAlign=top;spacingLeft=4;spacingRight=4;overflow=hidden;rotatable=0;points=[[0,0.5],[1,0.5]];portConstraint=eastwest;" vertex="1" parent="zkfFHV4jXpPFQw0GAbJ--13">
          <mxGeometry y="52" width="150" height="26" as="geometry" />
        </mxCell>
        <mxCell id="LjyMUBsOFT2IWWdEBGXr-12" value="-default shipping Address" style="text;align=left;verticalAlign=top;spacingLeft=4;spacingRight=4;overflow=hidden;rotatable=0;points=[[0,0.5],[1,0.5]];portConstraint=eastwest;" vertex="1" parent="zkfFHV4jXpPFQw0GAbJ--13">
          <mxGeometry y="78" width="150" height="24" as="geometry" />
        </mxCell>
        <mxCell id="zkfFHV4jXpPFQw0GAbJ--15" value="" style="line;html=1;strokeWidth=1;align=left;verticalAlign=middle;spacingTop=-1;spacingLeft=3;spacingRight=3;rotatable=0;labelPosition=right;points=[];portConstraint=eastwest;" vertex="1" parent="zkfFHV4jXpPFQw0GAbJ--13">
          <mxGeometry y="102" width="150" height="8" as="geometry" />
        </mxCell>
        <mxCell id="LjyMUBsOFT2IWWdEBGXr-13" value="+signUp()" style="text;align=left;verticalAlign=top;spacingLeft=4;spacingRight=4;overflow=hidden;rotatable=0;points=[[0,0.5],[1,0.5]];portConstraint=eastwest;" vertex="1" parent="zkfFHV4jXpPFQw0GAbJ--13">
          <mxGeometry y="110" width="150" height="24" as="geometry" />
        </mxCell>
        <mxCell id="LjyMUBsOFT2IWWdEBGXr-14" value="+login()" style="text;align=left;verticalAlign=top;spacingLeft=4;spacingRight=4;overflow=hidden;rotatable=0;points=[[0,0.5],[1,0.5]];portConstraint=eastwest;" vertex="1" parent="zkfFHV4jXpPFQw0GAbJ--13">
          <mxGeometry y="134" width="150" height="24" as="geometry" />
        </mxCell>
        <mxCell id="zkfFHV4jXpPFQw0GAbJ--17" value="Order details" style="swimlane;fontStyle=0;align=center;verticalAlign=top;childLayout=stackLayout;horizontal=1;startSize=26;horizontalStack=0;resizeParent=1;resizeLast=0;collapsible=1;marginBottom=0;rounded=0;shadow=0;strokeWidth=1;" vertex="1" parent="WIyWlLk6GJQsqaUBKTNV-1">
          <mxGeometry x="280" y="560" width="160" height="216" as="geometry">
            <mxRectangle x="550" y="140" width="160" height="26" as="alternateBounds" />
          </mxGeometry>
        </mxCell>
        <mxCell id="zkfFHV4jXpPFQw0GAbJ--18" value="-id" style="text;align=left;verticalAlign=top;spacingLeft=4;spacingRight=4;overflow=hidden;rotatable=0;points=[[0,0.5],[1,0.5]];portConstraint=eastwest;" vertex="1" parent="zkfFHV4jXpPFQw0GAbJ--17">
          <mxGeometry y="26" width="160" height="26" as="geometry" />
        </mxCell>
        <mxCell id="zkfFHV4jXpPFQw0GAbJ--19" value="-order id" style="text;align=left;verticalAlign=top;spacingLeft=4;spacingRight=4;overflow=hidden;rotatable=0;points=[[0,0.5],[1,0.5]];portConstraint=eastwest;rounded=0;shadow=0;html=0;" vertex="1" parent="zkfFHV4jXpPFQw0GAbJ--17">
          <mxGeometry y="52" width="160" height="26" as="geometry" />
        </mxCell>
        <mxCell id="zkfFHV4jXpPFQw0GAbJ--20" value="shipping type" style="text;align=left;verticalAlign=top;spacingLeft=4;spacingRight=4;overflow=hidden;rotatable=0;points=[[0,0.5],[1,0.5]];portConstraint=eastwest;rounded=0;shadow=0;html=0;" vertex="1" parent="zkfFHV4jXpPFQw0GAbJ--17">
          <mxGeometry y="78" width="160" height="26" as="geometry" />
        </mxCell>
        <mxCell id="LjyMUBsOFT2IWWdEBGXr-19" style="edgeStyle=orthogonalEdgeStyle;rounded=0;orthogonalLoop=1;jettySize=auto;html=1;exitX=1;exitY=0.5;exitDx=0;exitDy=0;" edge="1" parent="zkfFHV4jXpPFQw0GAbJ--17" source="zkfFHV4jXpPFQw0GAbJ--21">
          <mxGeometry relative="1" as="geometry">
            <mxPoint x="360" y="-50" as="targetPoint" />
          </mxGeometry>
        </mxCell>
        <mxCell id="zkfFHV4jXpPFQw0GAbJ--21" value="shipping cost" style="text;align=left;verticalAlign=top;spacingLeft=4;spacingRight=4;overflow=hidden;rotatable=0;points=[[0,0.5],[1,0.5]];portConstraint=eastwest;rounded=0;shadow=0;html=0;" vertex="1" parent="zkfFHV4jXpPFQw0GAbJ--17">
          <mxGeometry y="104" width="160" height="26" as="geometry" />
        </mxCell>
        <mxCell id="zkfFHV4jXpPFQw0GAbJ--22" value="billingAddress" style="text;align=left;verticalAlign=top;spacingLeft=4;spacingRight=4;overflow=hidden;rotatable=0;points=[[0,0.5],[1,0.5]];portConstraint=eastwest;rounded=0;shadow=0;html=0;" vertex="1" parent="zkfFHV4jXpPFQw0GAbJ--17">
          <mxGeometry y="130" width="160" height="26" as="geometry" />
        </mxCell>
        <mxCell id="zkfFHV4jXpPFQw0GAbJ--24" value="-create Date" style="text;align=left;verticalAlign=top;spacingLeft=4;spacingRight=4;overflow=hidden;rotatable=0;points=[[0,0.5],[1,0.5]];portConstraint=eastwest;" vertex="1" parent="zkfFHV4jXpPFQw0GAbJ--17">
          <mxGeometry y="156" width="160" height="26" as="geometry" />
        </mxCell>
        <mxCell id="zkfFHV4jXpPFQw0GAbJ--23" value="" style="line;html=1;strokeWidth=1;align=left;verticalAlign=middle;spacingTop=-1;spacingLeft=3;spacingRight=3;rotatable=0;labelPosition=right;points=[];portConstraint=eastwest;" vertex="1" parent="zkfFHV4jXpPFQw0GAbJ--17">
          <mxGeometry y="182" width="160" height="8" as="geometry" />
        </mxCell>
        <mxCell id="zkfFHV4jXpPFQw0GAbJ--25" value="+cancelOrder()" style="text;align=left;verticalAlign=top;spacingLeft=4;spacingRight=4;overflow=hidden;rotatable=0;points=[[0,0.5],[1,0.5]];portConstraint=eastwest;" vertex="1" parent="zkfFHV4jXpPFQw0GAbJ--17">
          <mxGeometry y="190" width="160" height="26" as="geometry" />
        </mxCell>
        <mxCell id="LjyMUBsOFT2IWWdEBGXr-0" value="Order" style="swimlane;fontStyle=0;align=center;verticalAlign=top;childLayout=stackLayout;horizontal=1;startSize=26;horizontalStack=0;resizeParent=1;resizeLast=0;collapsible=1;marginBottom=0;rounded=0;shadow=0;strokeWidth=1;" vertex="1" parent="WIyWlLk6GJQsqaUBKTNV-1">
          <mxGeometry x="560" y="292" width="160" height="216" as="geometry">
            <mxRectangle x="550" y="140" width="160" height="26" as="alternateBounds" />
          </mxGeometry>
        </mxCell>
        <mxCell id="LjyMUBsOFT2IWWdEBGXr-1" value="-id" style="text;align=left;verticalAlign=top;spacingLeft=4;spacingRight=4;overflow=hidden;rotatable=0;points=[[0,0.5],[1,0.5]];portConstraint=eastwest;" vertex="1" parent="LjyMUBsOFT2IWWdEBGXr-0">
          <mxGeometry y="26" width="160" height="26" as="geometry" />
        </mxCell>
        <mxCell id="LjyMUBsOFT2IWWdEBGXr-2" value="-customer id" style="text;align=left;verticalAlign=top;spacingLeft=4;spacingRight=4;overflow=hidden;rotatable=0;points=[[0,0.5],[1,0.5]];portConstraint=eastwest;rounded=0;shadow=0;html=0;" vertex="1" parent="LjyMUBsOFT2IWWdEBGXr-0">
          <mxGeometry y="52" width="160" height="26" as="geometry" />
        </mxCell>
        <mxCell id="LjyMUBsOFT2IWWdEBGXr-3" value="-order date" style="text;align=left;verticalAlign=top;spacingLeft=4;spacingRight=4;overflow=hidden;rotatable=0;points=[[0,0.5],[1,0.5]];portConstraint=eastwest;rounded=0;shadow=0;html=0;" vertex="1" parent="LjyMUBsOFT2IWWdEBGXr-0">
          <mxGeometry y="78" width="160" height="26" as="geometry" />
        </mxCell>
        <mxCell id="LjyMUBsOFT2IWWdEBGXr-4" value="-status" style="text;align=left;verticalAlign=top;spacingLeft=4;spacingRight=4;overflow=hidden;rotatable=0;points=[[0,0.5],[1,0.5]];portConstraint=eastwest;rounded=0;shadow=0;html=0;" vertex="1" parent="LjyMUBsOFT2IWWdEBGXr-0">
          <mxGeometry y="104" width="160" height="26" as="geometry" />
        </mxCell>
        <mxCell id="LjyMUBsOFT2IWWdEBGXr-5" value="-price" style="text;align=left;verticalAlign=top;spacingLeft=4;spacingRight=4;overflow=hidden;rotatable=0;points=[[0,0.5],[1,0.5]];portConstraint=eastwest;rounded=0;shadow=0;html=0;" vertex="1" parent="LjyMUBsOFT2IWWdEBGXr-0">
          <mxGeometry y="130" width="160" height="26" as="geometry" />
        </mxCell>
        <mxCell id="LjyMUBsOFT2IWWdEBGXr-6" value="" style="line;html=1;strokeWidth=1;align=left;verticalAlign=middle;spacingTop=-1;spacingLeft=3;spacingRight=3;rotatable=0;labelPosition=right;points=[];portConstraint=eastwest;" vertex="1" parent="LjyMUBsOFT2IWWdEBGXr-0">
          <mxGeometry y="156" width="160" height="8" as="geometry" />
        </mxCell>
        <mxCell id="LjyMUBsOFT2IWWdEBGXr-7" value="+updateOrderStatus()" style="text;align=left;verticalAlign=top;spacingLeft=4;spacingRight=4;overflow=hidden;rotatable=0;points=[[0,0.5],[1,0.5]];portConstraint=eastwest;" vertex="1" parent="LjyMUBsOFT2IWWdEBGXr-0">
          <mxGeometry y="164" width="160" height="26" as="geometry" />
        </mxCell>
        <mxCell id="LjyMUBsOFT2IWWdEBGXr-8" value="+placeOrder()" style="text;align=left;verticalAlign=top;spacingLeft=4;spacingRight=4;overflow=hidden;rotatable=0;points=[[0,0.5],[1,0.5]];portConstraint=eastwest;" vertex="1" parent="LjyMUBsOFT2IWWdEBGXr-0">
          <mxGeometry y="190" width="160" height="26" as="geometry" />
        </mxCell>
        <mxCell id="LjyMUBsOFT2IWWdEBGXr-15" value="" style="endArrow=classic;html=1;rounded=0;entryX=0.5;entryY=1;entryDx=0;entryDy=0;exitX=0.5;exitY=0;exitDx=0;exitDy=0;" edge="1" parent="WIyWlLk6GJQsqaUBKTNV-1" source="zkfFHV4jXpPFQw0GAbJ--13" target="zkfFHV4jXpPFQw0GAbJ--6">
          <mxGeometry width="50" height="50" relative="1" as="geometry">
            <mxPoint x="350" y="320" as="sourcePoint" />
            <mxPoint x="400" y="270" as="targetPoint" />
          </mxGeometry>
        </mxCell>
        <mxCell id="LjyMUBsOFT2IWWdEBGXr-16" value="" style="endArrow=classic;html=1;rounded=0;entryX=0;entryY=0.5;entryDx=0;entryDy=0;" edge="1" parent="WIyWlLk6GJQsqaUBKTNV-1">
          <mxGeometry width="50" height="50" relative="1" as="geometry">
            <mxPoint x="200" y="390" as="sourcePoint" />
            <mxPoint x="285" y="390" as="targetPoint" />
            <Array as="points" />
          </mxGeometry>
        </mxCell>
        <mxCell id="LjyMUBsOFT2IWWdEBGXr-17" value="" style="endArrow=classic;html=1;rounded=0;entryX=1;entryY=0.5;entryDx=0;entryDy=0;exitX=0;exitY=0.5;exitDx=0;exitDy=0;" edge="1" parent="WIyWlLk6GJQsqaUBKTNV-1">
          <mxGeometry width="50" height="50" relative="1" as="geometry">
            <mxPoint x="560" y="390" as="sourcePoint" />
            <mxPoint x="435" y="391" as="targetPoint" />
          </mxGeometry>
        </mxCell>
        <mxCell id="LjyMUBsOFT2IWWdEBGXr-20" value="1" style="text;html=1;align=center;verticalAlign=middle;resizable=0;points=[];autosize=1;strokeColor=none;fillColor=none;" vertex="1" parent="WIyWlLk6GJQsqaUBKTNV-1">
          <mxGeometry x="645" y="508" width="30" height="30" as="geometry" />
        </mxCell>
        <mxCell id="LjyMUBsOFT2IWWdEBGXr-21" value="1" style="text;html=1;align=center;verticalAlign=middle;resizable=0;points=[];autosize=1;strokeColor=none;fillColor=none;" vertex="1" parent="WIyWlLk6GJQsqaUBKTNV-1">
          <mxGeometry x="255" y="360" width="30" height="30" as="geometry" />
        </mxCell>
        <mxCell id="LjyMUBsOFT2IWWdEBGXr-22" value="1" style="text;html=1;align=center;verticalAlign=middle;resizable=0;points=[];autosize=1;strokeColor=none;fillColor=none;" vertex="1" parent="WIyWlLk6GJQsqaUBKTNV-1">
          <mxGeometry x="440" y="400" width="30" height="30" as="geometry" />
        </mxCell>
        <mxCell id="LjyMUBsOFT2IWWdEBGXr-23" value="1" style="text;html=1;align=center;verticalAlign=middle;resizable=0;points=[];autosize=1;strokeColor=none;fillColor=none;" vertex="1" parent="WIyWlLk6GJQsqaUBKTNV-1">
          <mxGeometry x="440" y="680" width="30" height="30" as="geometry" />
        </mxCell>
        <mxCell id="LjyMUBsOFT2IWWdEBGXr-25" value="0..*" style="text;html=1;align=center;verticalAlign=middle;resizable=0;points=[];autosize=1;strokeColor=none;fillColor=none;" vertex="1" parent="WIyWlLk6GJQsqaUBKTNV-1">
          <mxGeometry x="520" y="360" width="40" height="30" as="geometry" />
        </mxCell>
        <mxCell id="LjyMUBsOFT2IWWdEBGXr-26" value="0..*" style="text;html=1;align=center;verticalAlign=middle;resizable=0;points=[];autosize=1;strokeColor=none;fillColor=none;" vertex="1" parent="WIyWlLk6GJQsqaUBKTNV-1">
          <mxGeometry x="200" y="390" width="40" height="30" as="geometry" />
        </mxCell>
        <mxCell id="LjyMUBsOFT2IWWdEBGXr-27" value="&lt;b&gt;&lt;i&gt;&lt;font style=&quot;font-size: 25px;&quot;&gt;&lt;u&gt;Class Diagram&lt;/u&gt;&lt;/font&gt;&lt;/i&gt;&lt;/b&gt;" style="text;html=1;align=center;verticalAlign=middle;resizable=0;points=[];autosize=1;strokeColor=none;fillColor=none;" vertex="1" parent="WIyWlLk6GJQsqaUBKTNV-1">
          <mxGeometry x="260" y="33" width="200" height="40" as="geometry" />
        </mxCell>
      </root>
    </mxGraphModel>
  </diagram>
  <diagram id="iSEWjuYm843pTn6j5esg" name="Activity_diagram">
    <mxGraphModel grid="1" page="1" gridSize="10" guides="1" tooltips="1" connect="1" arrows="1" fold="1" pageScale="1" pageWidth="850" pageHeight="1100" math="0" shadow="0">
      <root>
        <mxCell id="0" />
        <mxCell id="1" parent="0" />
        <mxCell id="Ut-BiFWSnNXvmV9BkNBm-1" value="ONLINE SHOPPING APPLICATION" style="swimlane;html=1;childLayout=stackLayout;startSize=20;rounded=0;shadow=0;comic=0;labelBackgroundColor=none;strokeWidth=1;fontFamily=Verdana;fontSize=12;align=center;" vertex="1" parent="1">
          <mxGeometry x="143" y="102" width="500" height="990" as="geometry" />
        </mxCell>
        <mxCell id="Ut-BiFWSnNXvmV9BkNBm-2" value="Online Shopper/User" style="swimlane;html=1;startSize=20;" vertex="1" parent="Ut-BiFWSnNXvmV9BkNBm-1">
          <mxGeometry y="20" width="250" height="970" as="geometry" />
        </mxCell>
        <mxCell id="Ut-BiFWSnNXvmV9BkNBm-3" value="&lt;font style=&quot;font-size: 11px;&quot;&gt;Inquire for Desired Product&lt;/font&gt;" style="rounded=1;whiteSpace=wrap;html=1;shadow=0;comic=0;labelBackgroundColor=none;strokeWidth=1;fontFamily=Verdana;fontSize=12;align=center;arcSize=50;" vertex="1" parent="Ut-BiFWSnNXvmV9BkNBm-2">
          <mxGeometry x="70" y="205" width="100" height="30" as="geometry" />
        </mxCell>
        <mxCell id="Ut-BiFWSnNXvmV9BkNBm-4" value="Select Quantity And Purchase" style="rounded=1;whiteSpace=wrap;html=1;shadow=0;comic=0;labelBackgroundColor=none;strokeWidth=1;fontFamily=Verdana;fontSize=12;align=center;arcSize=50;" vertex="1" parent="Ut-BiFWSnNXvmV9BkNBm-2">
          <mxGeometry x="75" y="360" width="100" height="30" as="geometry" />
        </mxCell>
        <mxCell id="Ut-BiFWSnNXvmV9BkNBm-5" value="" style="ellipse;whiteSpace=wrap;html=1;rounded=0;shadow=0;comic=0;labelBackgroundColor=none;strokeWidth=1;fontFamily=Verdana;fontSize=12;align=center;" vertex="1" parent="Ut-BiFWSnNXvmV9BkNBm-2">
          <mxGeometry x="100" y="40" width="40" height="40" as="geometry" />
        </mxCell>
        <mxCell id="Ut-BiFWSnNXvmV9BkNBm-6" value="START" style="rounded=1;whiteSpace=wrap;html=1;shadow=0;comic=0;labelBackgroundColor=none;strokeWidth=1;fontFamily=Verdana;fontSize=12;align=center;arcSize=50;" vertex="1" parent="Ut-BiFWSnNXvmV9BkNBm-2">
          <mxGeometry x="70" y="110" width="100" height="30" as="geometry" />
        </mxCell>
        <mxCell id="Ut-BiFWSnNXvmV9BkNBm-7" style="edgeStyle=orthogonalEdgeStyle;rounded=0;html=1;labelBackgroundColor=none;startArrow=none;startFill=0;startSize=5;endArrow=classicThin;endFill=1;endSize=5;jettySize=auto;orthogonalLoop=1;strokeWidth=1;fontFamily=Verdana;fontSize=12" edge="1" parent="Ut-BiFWSnNXvmV9BkNBm-2" source="Ut-BiFWSnNXvmV9BkNBm-5" target="Ut-BiFWSnNXvmV9BkNBm-6">
          <mxGeometry relative="1" as="geometry" />
        </mxCell>
        <mxCell id="Ut-BiFWSnNXvmV9BkNBm-8" value="Display &quot;Wait for Delivery&quot;" style="rounded=1;whiteSpace=wrap;html=1;shadow=0;comic=0;labelBackgroundColor=none;strokeWidth=1;fontFamily=Verdana;fontSize=12;align=center;arcSize=50;" vertex="1" parent="Ut-BiFWSnNXvmV9BkNBm-2">
          <mxGeometry x="60" y="475" width="100" height="30" as="geometry" />
        </mxCell>
        <mxCell id="Ut-BiFWSnNXvmV9BkNBm-9" style="edgeStyle=none;curved=1;rounded=0;orthogonalLoop=1;jettySize=auto;html=1;exitX=0.5;exitY=1;exitDx=0;exitDy=0;entryX=0.5;entryY=0;entryDx=0;entryDy=0;fontSize=12;startSize=8;endSize=8;" edge="1" parent="Ut-BiFWSnNXvmV9BkNBm-2" source="Ut-BiFWSnNXvmV9BkNBm-10" target="Ut-BiFWSnNXvmV9BkNBm-12">
          <mxGeometry relative="1" as="geometry" />
        </mxCell>
        <mxCell id="Ut-BiFWSnNXvmV9BkNBm-10" value="" style="ellipse;whiteSpace=wrap;html=1;aspect=fixed;fillColor=#D79B00;strokeColor=#D79B00;" vertex="1" parent="Ut-BiFWSnNXvmV9BkNBm-2">
          <mxGeometry x="70" y="760" width="80" height="80" as="geometry" />
        </mxCell>
        <mxCell id="Ut-BiFWSnNXvmV9BkNBm-11" value="" style="ellipse;whiteSpace=wrap;html=1;aspect=fixed;" vertex="1" parent="Ut-BiFWSnNXvmV9BkNBm-2">
          <mxGeometry x="85" y="775" width="50" height="50" as="geometry" />
        </mxCell>
        <mxCell id="Ut-BiFWSnNXvmV9BkNBm-12" value="END" style="rounded=1;whiteSpace=wrap;html=1;shadow=0;comic=0;labelBackgroundColor=none;strokeWidth=1;fontFamily=Verdana;fontSize=12;align=center;arcSize=50;" vertex="1" parent="Ut-BiFWSnNXvmV9BkNBm-2">
          <mxGeometry x="60" y="890" width="100" height="30" as="geometry" />
        </mxCell>
        <mxCell id="Ut-BiFWSnNXvmV9BkNBm-13" style="edgeStyle=orthogonalEdgeStyle;rounded=0;orthogonalLoop=1;jettySize=auto;html=1;exitX=1;exitY=0.5;exitDx=0;exitDy=0;entryX=0;entryY=0.5;entryDx=0;entryDy=0;" edge="1" parent="Ut-BiFWSnNXvmV9BkNBm-1" source="Ut-BiFWSnNXvmV9BkNBm-6" target="Ut-BiFWSnNXvmV9BkNBm-19">
          <mxGeometry relative="1" as="geometry" />
        </mxCell>
        <mxCell id="Ut-BiFWSnNXvmV9BkNBm-14" style="edgeStyle=orthogonalEdgeStyle;rounded=0;orthogonalLoop=1;jettySize=auto;html=1;exitX=0.5;exitY=1;exitDx=0;exitDy=0;" edge="1" parent="Ut-BiFWSnNXvmV9BkNBm-1" source="Ut-BiFWSnNXvmV9BkNBm-19" target="Ut-BiFWSnNXvmV9BkNBm-3">
          <mxGeometry relative="1" as="geometry">
            <mxPoint x="120" y="210" as="targetPoint" />
          </mxGeometry>
        </mxCell>
        <mxCell id="Ut-BiFWSnNXvmV9BkNBm-15" value="" style="edgeStyle=orthogonalEdgeStyle;rounded=0;orthogonalLoop=1;jettySize=auto;html=1;" edge="1" parent="Ut-BiFWSnNXvmV9BkNBm-1" source="Ut-BiFWSnNXvmV9BkNBm-3" target="Ut-BiFWSnNXvmV9BkNBm-26">
          <mxGeometry relative="1" as="geometry" />
        </mxCell>
        <mxCell id="Ut-BiFWSnNXvmV9BkNBm-16" value="Online Shopping System" style="swimlane;html=1;startSize=20;" vertex="1" parent="Ut-BiFWSnNXvmV9BkNBm-1">
          <mxGeometry x="250" y="20" width="250" height="970" as="geometry" />
        </mxCell>
        <mxCell id="Ut-BiFWSnNXvmV9BkNBm-17" value="Display product Available" style="rounded=1;whiteSpace=wrap;html=1;shadow=0;comic=0;labelBackgroundColor=none;strokeWidth=1;fontFamily=Verdana;fontSize=12;align=center;arcSize=50;" vertex="1" parent="Ut-BiFWSnNXvmV9BkNBm-16">
          <mxGeometry x="74" y="360" width="100" height="30" as="geometry" />
        </mxCell>
        <mxCell id="Ut-BiFWSnNXvmV9BkNBm-18" value="&lt;font style=&quot;font-size: 9px;&quot;&gt;Display Purchase Information Form&lt;/font&gt;" style="rounded=1;whiteSpace=wrap;html=1;shadow=0;comic=0;labelBackgroundColor=none;strokeWidth=1;fontFamily=Verdana;fontSize=12;align=center;arcSize=50;" vertex="1" parent="Ut-BiFWSnNXvmV9BkNBm-16">
          <mxGeometry x="75" y="420" width="100" height="30" as="geometry" />
        </mxCell>
        <mxCell id="Ut-BiFWSnNXvmV9BkNBm-19" value="Show Product Offer" style="rounded=1;whiteSpace=wrap;html=1;shadow=0;comic=0;labelBackgroundColor=none;strokeWidth=1;fontFamily=Verdana;fontSize=12;align=center;arcSize=50;" vertex="1" parent="Ut-BiFWSnNXvmV9BkNBm-16">
          <mxGeometry x="75" y="110" width="100" height="30" as="geometry" />
        </mxCell>
        <mxCell id="Ut-BiFWSnNXvmV9BkNBm-20" value="" style="edgeStyle=orthogonalEdgeStyle;rounded=0;orthogonalLoop=1;jettySize=auto;html=1;" edge="1" parent="Ut-BiFWSnNXvmV9BkNBm-16" source="Ut-BiFWSnNXvmV9BkNBm-21" target="Ut-BiFWSnNXvmV9BkNBm-27">
          <mxGeometry relative="1" as="geometry" />
        </mxCell>
        <mxCell id="Ut-BiFWSnNXvmV9BkNBm-21" value="Display &quot;Wait for Delivery&quot;" style="rounded=1;whiteSpace=wrap;html=1;shadow=0;comic=0;labelBackgroundColor=none;strokeWidth=1;fontFamily=Verdana;fontSize=12;align=center;arcSize=50;" vertex="1" parent="Ut-BiFWSnNXvmV9BkNBm-16">
          <mxGeometry x="84" y="505" width="100" height="30" as="geometry" />
        </mxCell>
        <mxCell id="Ut-BiFWSnNXvmV9BkNBm-22" value="Display&quot;Sorry out of stock&quot;" style="rounded=1;whiteSpace=wrap;html=1;shadow=0;comic=0;labelBackgroundColor=none;strokeWidth=1;fontFamily=Verdana;fontSize=12;align=center;arcSize=50;" vertex="1" parent="Ut-BiFWSnNXvmV9BkNBm-16">
          <mxGeometry x="75" y="300" width="100" height="30" as="geometry" />
        </mxCell>
        <mxCell id="Ut-BiFWSnNXvmV9BkNBm-23" value="NO" style="edgeStyle=orthogonalEdgeStyle;rounded=0;orthogonalLoop=1;jettySize=auto;html=1;" edge="1" parent="Ut-BiFWSnNXvmV9BkNBm-16" source="Ut-BiFWSnNXvmV9BkNBm-26" target="Ut-BiFWSnNXvmV9BkNBm-22">
          <mxGeometry relative="1" as="geometry" />
        </mxCell>
        <mxCell id="Ut-BiFWSnNXvmV9BkNBm-24" style="edgeStyle=orthogonalEdgeStyle;rounded=0;orthogonalLoop=1;jettySize=auto;html=1;exitX=1;exitY=0.5;exitDx=0;exitDy=0;entryX=1;entryY=0.5;entryDx=0;entryDy=0;" edge="1" parent="Ut-BiFWSnNXvmV9BkNBm-16" source="Ut-BiFWSnNXvmV9BkNBm-26" target="Ut-BiFWSnNXvmV9BkNBm-17">
          <mxGeometry relative="1" as="geometry" />
        </mxCell>
        <mxCell id="Ut-BiFWSnNXvmV9BkNBm-25" value="YES" style="edgeLabel;html=1;align=center;verticalAlign=middle;resizable=0;points=[];" connectable="0" vertex="1" parent="Ut-BiFWSnNXvmV9BkNBm-24">
          <mxGeometry x="-0.2331" y="1" relative="1" as="geometry">
            <mxPoint as="offset" />
          </mxGeometry>
        </mxCell>
        <mxCell id="Ut-BiFWSnNXvmV9BkNBm-26" value="Product Available?" style="rhombus;whiteSpace=wrap;html=1;fontFamily=Verdana;rounded=1;shadow=0;comic=0;labelBackgroundColor=none;strokeWidth=1;arcSize=50;" vertex="1" parent="Ut-BiFWSnNXvmV9BkNBm-16">
          <mxGeometry x="84" y="180" width="80" height="80" as="geometry" />
        </mxCell>
        <mxCell id="Ut-BiFWSnNXvmV9BkNBm-27" value="Order Again?" style="rhombus;whiteSpace=wrap;html=1;fontFamily=Verdana;rounded=1;shadow=0;comic=0;labelBackgroundColor=none;strokeWidth=1;arcSize=50;" vertex="1" parent="Ut-BiFWSnNXvmV9BkNBm-16">
          <mxGeometry x="94" y="590" width="80" height="80" as="geometry" />
        </mxCell>
        <mxCell id="Ut-BiFWSnNXvmV9BkNBm-28" style="edgeStyle=orthogonalEdgeStyle;rounded=0;orthogonalLoop=1;jettySize=auto;html=1;exitX=0;exitY=0.5;exitDx=0;exitDy=0;entryX=0.5;entryY=1;entryDx=0;entryDy=0;" edge="1" parent="Ut-BiFWSnNXvmV9BkNBm-1" source="Ut-BiFWSnNXvmV9BkNBm-22" target="Ut-BiFWSnNXvmV9BkNBm-3">
          <mxGeometry relative="1" as="geometry" />
        </mxCell>
        <mxCell id="Ut-BiFWSnNXvmV9BkNBm-29" style="edgeStyle=orthogonalEdgeStyle;rounded=0;orthogonalLoop=1;jettySize=auto;html=1;exitX=0;exitY=0.5;exitDx=0;exitDy=0;entryX=1;entryY=0.5;entryDx=0;entryDy=0;" edge="1" parent="Ut-BiFWSnNXvmV9BkNBm-1" source="Ut-BiFWSnNXvmV9BkNBm-17" target="Ut-BiFWSnNXvmV9BkNBm-4">
          <mxGeometry relative="1" as="geometry" />
        </mxCell>
        <mxCell id="Ut-BiFWSnNXvmV9BkNBm-30" style="edgeStyle=orthogonalEdgeStyle;rounded=0;orthogonalLoop=1;jettySize=auto;html=1;exitX=0.5;exitY=1;exitDx=0;exitDy=0;entryX=0;entryY=0.5;entryDx=0;entryDy=0;" edge="1" parent="Ut-BiFWSnNXvmV9BkNBm-1" source="Ut-BiFWSnNXvmV9BkNBm-4" target="Ut-BiFWSnNXvmV9BkNBm-18">
          <mxGeometry relative="1" as="geometry" />
        </mxCell>
        <mxCell id="Ut-BiFWSnNXvmV9BkNBm-31" style="edgeStyle=orthogonalEdgeStyle;rounded=0;orthogonalLoop=1;jettySize=auto;html=1;exitX=0.5;exitY=1;exitDx=0;exitDy=0;" edge="1" parent="Ut-BiFWSnNXvmV9BkNBm-1" source="Ut-BiFWSnNXvmV9BkNBm-8" target="Ut-BiFWSnNXvmV9BkNBm-21">
          <mxGeometry relative="1" as="geometry">
            <Array as="points">
              <mxPoint x="110" y="540" />
            </Array>
          </mxGeometry>
        </mxCell>
        <mxCell id="Ut-BiFWSnNXvmV9BkNBm-32" style="edgeStyle=orthogonalEdgeStyle;rounded=0;orthogonalLoop=1;jettySize=auto;html=1;exitX=0.5;exitY=1;exitDx=0;exitDy=0;entryX=1;entryY=0.5;entryDx=0;entryDy=0;" edge="1" parent="Ut-BiFWSnNXvmV9BkNBm-1" source="Ut-BiFWSnNXvmV9BkNBm-18" target="Ut-BiFWSnNXvmV9BkNBm-8">
          <mxGeometry relative="1" as="geometry" />
        </mxCell>
        <mxCell id="Ut-BiFWSnNXvmV9BkNBm-33" style="edgeStyle=orthogonalEdgeStyle;rounded=0;orthogonalLoop=1;jettySize=auto;html=1;exitX=0;exitY=0.5;exitDx=0;exitDy=0;entryX=0;entryY=0.5;entryDx=0;entryDy=0;" edge="1" parent="Ut-BiFWSnNXvmV9BkNBm-1" source="Ut-BiFWSnNXvmV9BkNBm-27" target="Ut-BiFWSnNXvmV9BkNBm-6">
          <mxGeometry relative="1" as="geometry" />
        </mxCell>
        <mxCell id="Ut-BiFWSnNXvmV9BkNBm-34" value="YES" style="edgeLabel;html=1;align=center;verticalAlign=middle;resizable=0;points=[];" connectable="0" vertex="1" parent="Ut-BiFWSnNXvmV9BkNBm-33">
          <mxGeometry x="-0.6915" y="-4" relative="1" as="geometry">
            <mxPoint x="-1" y="4" as="offset" />
          </mxGeometry>
        </mxCell>
        <mxCell id="Ut-BiFWSnNXvmV9BkNBm-35" style="edgeStyle=none;curved=1;rounded=0;orthogonalLoop=1;jettySize=auto;html=1;exitX=0.5;exitY=1;exitDx=0;exitDy=0;fontSize=12;startSize=8;endSize=8;" edge="1" parent="Ut-BiFWSnNXvmV9BkNBm-1" source="Ut-BiFWSnNXvmV9BkNBm-27" target="Ut-BiFWSnNXvmV9BkNBm-10">
          <mxGeometry relative="1" as="geometry" />
        </mxCell>
        <mxCell id="Ut-BiFWSnNXvmV9BkNBm-36" value="NO" style="edgeLabel;html=1;align=center;verticalAlign=middle;resizable=0;points=[];fontSize=12;" connectable="0" vertex="1" parent="Ut-BiFWSnNXvmV9BkNBm-35">
          <mxGeometry x="0.2004" y="3" relative="1" as="geometry">
            <mxPoint x="47" y="-30" as="offset" />
          </mxGeometry>
        </mxCell>
        <mxCell id="Ut-BiFWSnNXvmV9BkNBm-37" value="&lt;b&gt;&lt;i&gt;&lt;u&gt;&lt;font style=&quot;font-size: 21px;&quot;&gt;ACTIVITY DIAGRAM OF SHOPPING APP&lt;/font&gt;&lt;/u&gt;&lt;/i&gt;&lt;/b&gt;" style="text;html=1;align=center;verticalAlign=middle;whiteSpace=wrap;rounded=0;fontSize=16;" vertex="1" parent="1">
          <mxGeometry x="100" y="10" width="590" height="50" as="geometry" />
        </mxCell>
      </root>
    </mxGraphModel>
  </diagram>
  <diagram id="4sQ02y3jaaBjkwVi9uvq" name="E-R Diagram">
    <mxGraphModel grid="1" page="1" gridSize="10" guides="1" tooltips="1" connect="1" arrows="1" fold="1" pageScale="1" pageWidth="850" pageHeight="1100" math="0" shadow="0">
      <root>
        <mxCell id="0" />
        <mxCell id="1" parent="0" />
        <mxCell id="VmOOmBebYZ8hfPtJdQcS-1" value="&lt;font style=&quot;font-size: 14px;&quot;&gt;Customer_Name&lt;/font&gt;" style="ellipse;whiteSpace=wrap;html=1;" vertex="1" parent="1">
          <mxGeometry x="-1470" y="-771" width="120" height="80" as="geometry" />
        </mxCell>
        <mxCell id="VmOOmBebYZ8hfPtJdQcS-2" style="edgeStyle=orthogonalEdgeStyle;rounded=0;orthogonalLoop=1;jettySize=auto;html=1;exitX=0;exitY=0.5;exitDx=0;exitDy=0;" edge="1" parent="1" source="VmOOmBebYZ8hfPtJdQcS-6" target="VmOOmBebYZ8hfPtJdQcS-1">
          <mxGeometry relative="1" as="geometry" />
        </mxCell>
        <mxCell id="VmOOmBebYZ8hfPtJdQcS-3" style="edgeStyle=orthogonalEdgeStyle;rounded=0;orthogonalLoop=1;jettySize=auto;html=1;exitX=0.5;exitY=0;exitDx=0;exitDy=0;" edge="1" parent="1" source="VmOOmBebYZ8hfPtJdQcS-6">
          <mxGeometry relative="1" as="geometry">
            <mxPoint x="-1170" y="-691" as="targetPoint" />
          </mxGeometry>
        </mxCell>
        <mxCell id="VmOOmBebYZ8hfPtJdQcS-4" style="edgeStyle=orthogonalEdgeStyle;rounded=0;orthogonalLoop=1;jettySize=auto;html=1;exitX=0;exitY=0.75;exitDx=0;exitDy=0;" edge="1" parent="1" source="VmOOmBebYZ8hfPtJdQcS-6">
          <mxGeometry relative="1" as="geometry">
            <mxPoint x="-1420" y="-541" as="targetPoint" />
          </mxGeometry>
        </mxCell>
        <mxCell id="VmOOmBebYZ8hfPtJdQcS-5" value="" style="edgeStyle=orthogonalEdgeStyle;rounded=0;orthogonalLoop=1;jettySize=auto;html=1;" edge="1" parent="1" source="VmOOmBebYZ8hfPtJdQcS-6" target="VmOOmBebYZ8hfPtJdQcS-12">
          <mxGeometry relative="1" as="geometry" />
        </mxCell>
        <object label="&lt;font style=&quot;font-size: 21px;&quot;&gt;CUSTOMER&lt;/font&gt;" CUSTOMER="CUSTOmER" id="VmOOmBebYZ8hfPtJdQcS-6">
          <mxCell style="rounded=0;whiteSpace=wrap;html=1;" vertex="1" parent="1">
            <mxGeometry x="-1380" y="-611" width="170" height="70" as="geometry" />
          </mxCell>
        </object>
        <mxCell id="VmOOmBebYZ8hfPtJdQcS-7" value="&lt;font style=&quot;font-size: 13px;&quot;&gt;Customer_Address&lt;/font&gt;" style="ellipse;whiteSpace=wrap;html=1;" vertex="1" parent="1">
          <mxGeometry x="-1340" y="-771" width="120" height="80" as="geometry" />
        </mxCell>
        <mxCell id="VmOOmBebYZ8hfPtJdQcS-8" style="edgeStyle=orthogonalEdgeStyle;rounded=0;orthogonalLoop=1;jettySize=auto;html=1;exitX=0.25;exitY=0;exitDx=0;exitDy=0;entryX=0.404;entryY=1.025;entryDx=0;entryDy=0;entryPerimeter=0;" edge="1" parent="1" source="VmOOmBebYZ8hfPtJdQcS-6" target="VmOOmBebYZ8hfPtJdQcS-7">
          <mxGeometry relative="1" as="geometry">
            <Array as="points">
              <mxPoint x="-1337" y="-651" />
              <mxPoint x="-1310" y="-651" />
              <mxPoint x="-1310" y="-681" />
              <mxPoint x="-1291" y="-681" />
            </Array>
          </mxGeometry>
        </mxCell>
        <mxCell id="VmOOmBebYZ8hfPtJdQcS-9" value="&lt;font style=&quot;font-size: 15px;&quot;&gt;Contact&lt;/font&gt;" style="ellipse;whiteSpace=wrap;html=1;" vertex="1" parent="1">
          <mxGeometry x="-1210" y="-771" width="120" height="80" as="geometry" />
        </mxCell>
        <mxCell id="VmOOmBebYZ8hfPtJdQcS-10" value="&lt;font style=&quot;font-size: 15px;&quot;&gt;Customer_Id&lt;/font&gt;" style="ellipse;whiteSpace=wrap;html=1;" vertex="1" parent="1">
          <mxGeometry x="-1537" y="-571" width="120" height="80" as="geometry" />
        </mxCell>
        <mxCell id="VmOOmBebYZ8hfPtJdQcS-11" value="" style="edgeStyle=orthogonalEdgeStyle;rounded=0;orthogonalLoop=1;jettySize=auto;html=1;" edge="1" parent="1" source="VmOOmBebYZ8hfPtJdQcS-12" target="VmOOmBebYZ8hfPtJdQcS-18">
          <mxGeometry relative="1" as="geometry" />
        </mxCell>
        <mxCell id="VmOOmBebYZ8hfPtJdQcS-12" value="&lt;font style=&quot;font-size: 15px;&quot;&gt;MAKE&lt;/font&gt;" style="rhombus;whiteSpace=wrap;html=1;rounded=0;" vertex="1" parent="1">
          <mxGeometry x="-1085" y="-616" width="80" height="80" as="geometry" />
        </mxCell>
        <mxCell id="VmOOmBebYZ8hfPtJdQcS-13" value="" style="edgeStyle=orthogonalEdgeStyle;rounded=0;orthogonalLoop=1;jettySize=auto;html=1;" edge="1" parent="1" source="VmOOmBebYZ8hfPtJdQcS-18" target="VmOOmBebYZ8hfPtJdQcS-20">
          <mxGeometry relative="1" as="geometry" />
        </mxCell>
        <mxCell id="VmOOmBebYZ8hfPtJdQcS-14" value="" style="edgeStyle=orthogonalEdgeStyle;rounded=0;orthogonalLoop=1;jettySize=auto;html=1;" edge="1" parent="1" source="VmOOmBebYZ8hfPtJdQcS-18" target="VmOOmBebYZ8hfPtJdQcS-25">
          <mxGeometry relative="1" as="geometry" />
        </mxCell>
        <mxCell id="VmOOmBebYZ8hfPtJdQcS-15" style="edgeStyle=orthogonalEdgeStyle;rounded=0;orthogonalLoop=1;jettySize=auto;html=1;exitX=0.25;exitY=0;exitDx=0;exitDy=0;" edge="1" parent="1" source="VmOOmBebYZ8hfPtJdQcS-18" target="VmOOmBebYZ8hfPtJdQcS-26">
          <mxGeometry relative="1" as="geometry">
            <mxPoint x="-914.6666666666665" y="-651" as="targetPoint" />
          </mxGeometry>
        </mxCell>
        <mxCell id="VmOOmBebYZ8hfPtJdQcS-16" style="edgeStyle=orthogonalEdgeStyle;rounded=0;orthogonalLoop=1;jettySize=auto;html=1;exitX=0.5;exitY=0;exitDx=0;exitDy=0;" edge="1" parent="1" source="VmOOmBebYZ8hfPtJdQcS-18" target="VmOOmBebYZ8hfPtJdQcS-27">
          <mxGeometry relative="1" as="geometry">
            <mxPoint x="-860" y="-651" as="targetPoint" />
            <Array as="points">
              <mxPoint x="-870" y="-606" />
              <mxPoint x="-870" y="-668" />
              <mxPoint x="-830" y="-668" />
            </Array>
          </mxGeometry>
        </mxCell>
        <mxCell id="VmOOmBebYZ8hfPtJdQcS-17" style="edgeStyle=orthogonalEdgeStyle;rounded=0;orthogonalLoop=1;jettySize=auto;html=1;exitX=0.75;exitY=0;exitDx=0;exitDy=0;entryX=0.5;entryY=1;entryDx=0;entryDy=0;" edge="1" parent="1" source="VmOOmBebYZ8hfPtJdQcS-18" target="VmOOmBebYZ8hfPtJdQcS-28">
          <mxGeometry relative="1" as="geometry">
            <mxPoint x="-810" y="-651" as="targetPoint" />
            <Array as="points">
              <mxPoint x="-855" y="-628" />
              <mxPoint x="-730" y="-628" />
            </Array>
          </mxGeometry>
        </mxCell>
        <mxCell id="VmOOmBebYZ8hfPtJdQcS-18" value="&lt;font style=&quot;font-size: 19px;&quot;&gt;Order&lt;/font&gt;" style="whiteSpace=wrap;html=1;rounded=0;" vertex="1" parent="1">
          <mxGeometry x="-945" y="-606" width="120" height="60" as="geometry" />
        </mxCell>
        <mxCell id="VmOOmBebYZ8hfPtJdQcS-19" value="" style="edgeStyle=orthogonalEdgeStyle;rounded=0;orthogonalLoop=1;jettySize=auto;html=1;" edge="1" parent="1" source="VmOOmBebYZ8hfPtJdQcS-20" target="VmOOmBebYZ8hfPtJdQcS-23">
          <mxGeometry relative="1" as="geometry" />
        </mxCell>
        <mxCell id="VmOOmBebYZ8hfPtJdQcS-20" value="&lt;font style=&quot;font-size: 15px;&quot;&gt;HAS&lt;/font&gt;" style="rhombus;whiteSpace=wrap;html=1;rounded=0;" vertex="1" parent="1">
          <mxGeometry x="-725" y="-616" width="80" height="80" as="geometry" />
        </mxCell>
        <mxCell id="VmOOmBebYZ8hfPtJdQcS-21" style="edgeStyle=orthogonalEdgeStyle;rounded=0;orthogonalLoop=1;jettySize=auto;html=1;exitX=0.25;exitY=0;exitDx=0;exitDy=0;" edge="1" parent="1" source="VmOOmBebYZ8hfPtJdQcS-23" target="VmOOmBebYZ8hfPtJdQcS-29">
          <mxGeometry relative="1" as="geometry">
            <mxPoint x="-554.6666666666665" y="-651" as="targetPoint" />
          </mxGeometry>
        </mxCell>
        <mxCell id="VmOOmBebYZ8hfPtJdQcS-22" style="edgeStyle=orthogonalEdgeStyle;rounded=0;orthogonalLoop=1;jettySize=auto;html=1;exitX=0.75;exitY=0;exitDx=0;exitDy=0;entryX=0.608;entryY=1.053;entryDx=0;entryDy=0;entryPerimeter=0;" edge="1" parent="1" source="VmOOmBebYZ8hfPtJdQcS-23" target="VmOOmBebYZ8hfPtJdQcS-30">
          <mxGeometry relative="1" as="geometry">
            <mxPoint x="-494.6666666666665" y="-651" as="targetPoint" />
            <Array as="points">
              <mxPoint x="-495" y="-631" />
              <mxPoint x="-417" y="-631" />
            </Array>
          </mxGeometry>
        </mxCell>
        <mxCell id="VmOOmBebYZ8hfPtJdQcS-23" value="&lt;font style=&quot;font-size: 14px;&quot;&gt;TRACKING&lt;/font&gt;" style="whiteSpace=wrap;html=1;rounded=0;" vertex="1" parent="1">
          <mxGeometry x="-585" y="-606" width="120" height="60" as="geometry" />
        </mxCell>
        <mxCell id="VmOOmBebYZ8hfPtJdQcS-24" value="" style="edgeStyle=orthogonalEdgeStyle;rounded=0;orthogonalLoop=1;jettySize=auto;html=1;" edge="1" parent="1" source="VmOOmBebYZ8hfPtJdQcS-25" target="VmOOmBebYZ8hfPtJdQcS-36">
          <mxGeometry relative="1" as="geometry" />
        </mxCell>
        <mxCell id="VmOOmBebYZ8hfPtJdQcS-25" value="&lt;font style=&quot;font-size: 13px;&quot;&gt;CONTAINS&lt;/font&gt;" style="rhombus;whiteSpace=wrap;html=1;rounded=0;" vertex="1" parent="1">
          <mxGeometry x="-812" y="-531" width="80" height="80" as="geometry" />
        </mxCell>
        <mxCell id="VmOOmBebYZ8hfPtJdQcS-26" value="&lt;font style=&quot;font-size: 13px;&quot;&gt;ORDER_NO.&lt;/font&gt;" style="ellipse;whiteSpace=wrap;html=1;" vertex="1" parent="1">
          <mxGeometry x="-990" y="-731" width="120" height="80" as="geometry" />
        </mxCell>
        <mxCell id="VmOOmBebYZ8hfPtJdQcS-27" value="&lt;font style=&quot;font-size: 13px;&quot;&gt;ORDER_DATE&lt;/font&gt;" style="ellipse;whiteSpace=wrap;html=1;" vertex="1" parent="1">
          <mxGeometry x="-890" y="-811" width="120" height="80" as="geometry" />
        </mxCell>
        <mxCell id="VmOOmBebYZ8hfPtJdQcS-28" value="&lt;font style=&quot;font-size: 14px;&quot;&gt;AMOUNT&lt;/font&gt;" style="ellipse;whiteSpace=wrap;html=1;" vertex="1" parent="1">
          <mxGeometry x="-790" y="-741" width="120" height="80" as="geometry" />
        </mxCell>
        <mxCell id="VmOOmBebYZ8hfPtJdQcS-29" value="&lt;font style=&quot;font-size: 13px;&quot;&gt;TRACKING_NO.&lt;/font&gt;" style="ellipse;whiteSpace=wrap;html=1;" vertex="1" parent="1">
          <mxGeometry x="-630" y="-731" width="120" height="80" as="geometry" />
        </mxCell>
        <mxCell id="VmOOmBebYZ8hfPtJdQcS-30" value="&lt;font style=&quot;font-size: 13px;&quot;&gt;COURIER_NAME&lt;/font&gt;" style="ellipse;whiteSpace=wrap;html=1;" vertex="1" parent="1">
          <mxGeometry x="-490" y="-731" width="120" height="80" as="geometry" />
        </mxCell>
        <mxCell id="VmOOmBebYZ8hfPtJdQcS-31" value="&lt;i&gt;&lt;u&gt;Entity Relationship Diagram&lt;/u&gt;&lt;/i&gt;" style="text;strokeColor=none;fillColor=none;html=1;fontSize=24;fontStyle=1;verticalAlign=middle;align=center;" vertex="1" parent="1">
          <mxGeometry x="-1027" y="-1011" width="350" height="80" as="geometry" />
        </mxCell>
        <mxCell id="VmOOmBebYZ8hfPtJdQcS-32" style="edgeStyle=orthogonalEdgeStyle;rounded=0;orthogonalLoop=1;jettySize=auto;html=1;exitX=1;exitY=0;exitDx=0;exitDy=0;" edge="1" parent="1" source="VmOOmBebYZ8hfPtJdQcS-36">
          <mxGeometry relative="1" as="geometry">
            <mxPoint x="-327" y="-355" as="targetPoint" />
          </mxGeometry>
        </mxCell>
        <mxCell id="VmOOmBebYZ8hfPtJdQcS-33" style="edgeStyle=orthogonalEdgeStyle;rounded=0;orthogonalLoop=1;jettySize=auto;html=1;exitX=1;exitY=0.5;exitDx=0;exitDy=0;" edge="1" parent="1" source="VmOOmBebYZ8hfPtJdQcS-36">
          <mxGeometry relative="1" as="geometry">
            <mxPoint x="-307" y="-295" as="targetPoint" />
          </mxGeometry>
        </mxCell>
        <mxCell id="VmOOmBebYZ8hfPtJdQcS-34" style="edgeStyle=orthogonalEdgeStyle;rounded=0;orthogonalLoop=1;jettySize=auto;html=1;exitX=1;exitY=1;exitDx=0;exitDy=0;" edge="1" parent="1" source="VmOOmBebYZ8hfPtJdQcS-36" target="VmOOmBebYZ8hfPtJdQcS-38">
          <mxGeometry relative="1" as="geometry">
            <mxPoint x="-327" y="-235" as="targetPoint" />
          </mxGeometry>
        </mxCell>
        <mxCell id="VmOOmBebYZ8hfPtJdQcS-35" value="" style="edgeStyle=orthogonalEdgeStyle;rounded=0;orthogonalLoop=1;jettySize=auto;html=1;" edge="1" parent="1" source="VmOOmBebYZ8hfPtJdQcS-36" target="VmOOmBebYZ8hfPtJdQcS-42">
          <mxGeometry relative="1" as="geometry" />
        </mxCell>
        <mxCell id="VmOOmBebYZ8hfPtJdQcS-36" value="&lt;font style=&quot;font-size: 15px;&quot;&gt;PRODUCT&lt;/font&gt;" style="whiteSpace=wrap;html=1;rounded=0;" vertex="1" parent="1">
          <mxGeometry x="-472" y="-325" width="125" height="60" as="geometry" />
        </mxCell>
        <mxCell id="VmOOmBebYZ8hfPtJdQcS-37" value="PRODUCT_PRICE" style="ellipse;whiteSpace=wrap;html=1;" vertex="1" parent="1">
          <mxGeometry x="-557" y="-225" width="120" height="80" as="geometry" />
        </mxCell>
        <mxCell id="VmOOmBebYZ8hfPtJdQcS-38" value="PRODUCT_STATUS" style="ellipse;whiteSpace=wrap;html=1;" vertex="1" parent="1">
          <mxGeometry x="-367" y="-235" width="120" height="80" as="geometry" />
        </mxCell>
        <mxCell id="VmOOmBebYZ8hfPtJdQcS-39" value="PRODUCT_NAME" style="ellipse;whiteSpace=wrap;html=1;" vertex="1" parent="1">
          <mxGeometry x="-307" y="-335" width="120" height="80" as="geometry" />
        </mxCell>
        <mxCell id="VmOOmBebYZ8hfPtJdQcS-40" value="PRODUCT_ID" style="ellipse;whiteSpace=wrap;html=1;" vertex="1" parent="1">
          <mxGeometry x="-387" y="-431" width="120" height="80" as="geometry" />
        </mxCell>
        <mxCell id="VmOOmBebYZ8hfPtJdQcS-41" value="" style="edgeStyle=orthogonalEdgeStyle;rounded=0;orthogonalLoop=1;jettySize=auto;html=1;" edge="1" parent="1" source="VmOOmBebYZ8hfPtJdQcS-42" target="VmOOmBebYZ8hfPtJdQcS-46">
          <mxGeometry relative="1" as="geometry" />
        </mxCell>
        <mxCell id="VmOOmBebYZ8hfPtJdQcS-42" value="SUPPLIES" style="rhombus;whiteSpace=wrap;html=1;rounded=0;" vertex="1" parent="1">
          <mxGeometry x="-449.5" y="-125" width="80" height="80" as="geometry" />
        </mxCell>
        <mxCell id="VmOOmBebYZ8hfPtJdQcS-43" style="edgeStyle=orthogonalEdgeStyle;rounded=0;orthogonalLoop=1;jettySize=auto;html=1;exitX=0;exitY=0.25;exitDx=0;exitDy=0;" edge="1" parent="1" source="VmOOmBebYZ8hfPtJdQcS-46" target="VmOOmBebYZ8hfPtJdQcS-66">
          <mxGeometry relative="1" as="geometry" />
        </mxCell>
        <mxCell id="VmOOmBebYZ8hfPtJdQcS-44" style="edgeStyle=orthogonalEdgeStyle;rounded=0;orthogonalLoop=1;jettySize=auto;html=1;exitX=0.25;exitY=0;exitDx=0;exitDy=0;entryX=0.5;entryY=1;entryDx=0;entryDy=0;" edge="1" parent="1" source="VmOOmBebYZ8hfPtJdQcS-46" target="VmOOmBebYZ8hfPtJdQcS-65">
          <mxGeometry relative="1" as="geometry" />
        </mxCell>
        <mxCell id="VmOOmBebYZ8hfPtJdQcS-45" style="edgeStyle=orthogonalEdgeStyle;rounded=0;orthogonalLoop=1;jettySize=auto;html=1;exitX=1;exitY=0.25;exitDx=0;exitDy=0;entryX=0.5;entryY=1;entryDx=0;entryDy=0;" edge="1" parent="1" source="VmOOmBebYZ8hfPtJdQcS-46" target="VmOOmBebYZ8hfPtJdQcS-64">
          <mxGeometry relative="1" as="geometry" />
        </mxCell>
        <mxCell id="VmOOmBebYZ8hfPtJdQcS-46" value="SUPPLIER" style="whiteSpace=wrap;html=1;rounded=0;" vertex="1" parent="1">
          <mxGeometry x="-867" y="-115" width="120" height="60" as="geometry" />
        </mxCell>
        <mxCell id="VmOOmBebYZ8hfPtJdQcS-47" value="" style="edgeStyle=orthogonalEdgeStyle;rounded=0;orthogonalLoop=1;jettySize=auto;html=1;" edge="1" parent="1" source="VmOOmBebYZ8hfPtJdQcS-51" target="VmOOmBebYZ8hfPtJdQcS-53">
          <mxGeometry relative="1" as="geometry" />
        </mxCell>
        <mxCell id="VmOOmBebYZ8hfPtJdQcS-48" style="edgeStyle=orthogonalEdgeStyle;rounded=0;orthogonalLoop=1;jettySize=auto;html=1;exitX=0.5;exitY=1;exitDx=0;exitDy=0;entryX=0.5;entryY=0;entryDx=0;entryDy=0;" edge="1" parent="1" source="VmOOmBebYZ8hfPtJdQcS-51" target="VmOOmBebYZ8hfPtJdQcS-68">
          <mxGeometry relative="1" as="geometry" />
        </mxCell>
        <mxCell id="VmOOmBebYZ8hfPtJdQcS-49" style="edgeStyle=orthogonalEdgeStyle;rounded=0;orthogonalLoop=1;jettySize=auto;html=1;exitX=0;exitY=0.5;exitDx=0;exitDy=0;" edge="1" parent="1" source="VmOOmBebYZ8hfPtJdQcS-51" target="VmOOmBebYZ8hfPtJdQcS-69">
          <mxGeometry relative="1" as="geometry" />
        </mxCell>
        <mxCell id="VmOOmBebYZ8hfPtJdQcS-50" style="edgeStyle=orthogonalEdgeStyle;rounded=0;orthogonalLoop=1;jettySize=auto;html=1;exitX=0.5;exitY=0;exitDx=0;exitDy=0;entryX=0.5;entryY=1;entryDx=0;entryDy=0;" edge="1" parent="1" source="VmOOmBebYZ8hfPtJdQcS-51" target="VmOOmBebYZ8hfPtJdQcS-70">
          <mxGeometry relative="1" as="geometry" />
        </mxCell>
        <object label="&lt;font style=&quot;font-size: 21px;&quot;&gt;ADMIN&lt;/font&gt;" CUSTOMER="CUSTOmER" id="VmOOmBebYZ8hfPtJdQcS-51">
          <mxCell style="rounded=0;whiteSpace=wrap;html=1;" vertex="1" parent="1">
            <mxGeometry x="-1380" y="-331" width="170" height="70" as="geometry" />
          </mxCell>
        </object>
        <mxCell id="VmOOmBebYZ8hfPtJdQcS-52" value="" style="edgeStyle=orthogonalEdgeStyle;rounded=0;orthogonalLoop=1;jettySize=auto;html=1;" edge="1" parent="1" source="VmOOmBebYZ8hfPtJdQcS-53" target="VmOOmBebYZ8hfPtJdQcS-56">
          <mxGeometry relative="1" as="geometry" />
        </mxCell>
        <mxCell id="VmOOmBebYZ8hfPtJdQcS-53" value="&lt;font style=&quot;font-size: 13px;&quot;&gt;MANAGE&lt;/font&gt;" style="rhombus;whiteSpace=wrap;html=1;rounded=0;" vertex="1" parent="1">
          <mxGeometry x="-1157" y="-336" width="80" height="80" as="geometry" />
        </mxCell>
        <mxCell id="VmOOmBebYZ8hfPtJdQcS-54" value="" style="edgeStyle=orthogonalEdgeStyle;rounded=0;orthogonalLoop=1;jettySize=auto;html=1;" edge="1" parent="1" source="VmOOmBebYZ8hfPtJdQcS-56" target="VmOOmBebYZ8hfPtJdQcS-58">
          <mxGeometry relative="1" as="geometry" />
        </mxCell>
        <mxCell id="VmOOmBebYZ8hfPtJdQcS-55" style="edgeStyle=orthogonalEdgeStyle;rounded=0;orthogonalLoop=1;jettySize=auto;html=1;exitX=0.5;exitY=0;exitDx=0;exitDy=0;" edge="1" parent="1" source="VmOOmBebYZ8hfPtJdQcS-56" target="VmOOmBebYZ8hfPtJdQcS-71">
          <mxGeometry relative="1" as="geometry">
            <mxPoint x="-972.3333333333335" y="-376" as="targetPoint" />
          </mxGeometry>
        </mxCell>
        <mxCell id="VmOOmBebYZ8hfPtJdQcS-56" value="ONLINE Shopping APP" style="whiteSpace=wrap;html=1;rounded=0;" vertex="1" parent="1">
          <mxGeometry x="-1032" y="-326" width="120" height="60" as="geometry" />
        </mxCell>
        <mxCell id="VmOOmBebYZ8hfPtJdQcS-57" value="" style="edgeStyle=orthogonalEdgeStyle;rounded=0;orthogonalLoop=1;jettySize=auto;html=1;" edge="1" parent="1" source="VmOOmBebYZ8hfPtJdQcS-58" target="VmOOmBebYZ8hfPtJdQcS-61">
          <mxGeometry relative="1" as="geometry" />
        </mxCell>
        <mxCell id="VmOOmBebYZ8hfPtJdQcS-58" value="HAS" style="rhombus;whiteSpace=wrap;html=1;rounded=0;" vertex="1" parent="1">
          <mxGeometry x="-850" y="-335" width="80" height="80" as="geometry" />
        </mxCell>
        <mxCell id="VmOOmBebYZ8hfPtJdQcS-59" value="" style="edgeStyle=orthogonalEdgeStyle;rounded=0;orthogonalLoop=1;jettySize=auto;html=1;" edge="1" parent="1" source="VmOOmBebYZ8hfPtJdQcS-61" target="VmOOmBebYZ8hfPtJdQcS-63">
          <mxGeometry relative="1" as="geometry" />
        </mxCell>
        <mxCell id="VmOOmBebYZ8hfPtJdQcS-60" style="edgeStyle=orthogonalEdgeStyle;rounded=0;orthogonalLoop=1;jettySize=auto;html=1;exitX=0.25;exitY=0;exitDx=0;exitDy=0;entryX=0.5;entryY=1;entryDx=0;entryDy=0;" edge="1" parent="1" source="VmOOmBebYZ8hfPtJdQcS-61">
          <mxGeometry relative="1" as="geometry">
            <mxPoint x="-702" y="-365" as="targetPoint" />
          </mxGeometry>
        </mxCell>
        <mxCell id="VmOOmBebYZ8hfPtJdQcS-61" value="PRODUCT CATEGORY" style="whiteSpace=wrap;html=1;rounded=0;" vertex="1" parent="1">
          <mxGeometry x="-732" y="-325" width="120" height="60" as="geometry" />
        </mxCell>
        <mxCell id="VmOOmBebYZ8hfPtJdQcS-62" value="" style="edgeStyle=orthogonalEdgeStyle;rounded=0;orthogonalLoop=1;jettySize=auto;html=1;" edge="1" parent="1" source="VmOOmBebYZ8hfPtJdQcS-63" target="VmOOmBebYZ8hfPtJdQcS-36">
          <mxGeometry relative="1" as="geometry" />
        </mxCell>
        <mxCell id="VmOOmBebYZ8hfPtJdQcS-63" value="HAS" style="rhombus;whiteSpace=wrap;html=1;rounded=0;" vertex="1" parent="1">
          <mxGeometry x="-585" y="-335" width="80" height="80" as="geometry" />
        </mxCell>
        <mxCell id="VmOOmBebYZ8hfPtJdQcS-64" value="&lt;font style=&quot;font-size: 13px;&quot;&gt;Supplier_Address&lt;/font&gt;" style="ellipse;whiteSpace=wrap;html=1;" vertex="1" parent="1">
          <mxGeometry x="-765" y="-235" width="120" height="80" as="geometry" />
        </mxCell>
        <mxCell id="VmOOmBebYZ8hfPtJdQcS-65" value="&lt;font style=&quot;font-size: 13px;&quot;&gt;Supplier_Name&lt;/font&gt;" style="ellipse;whiteSpace=wrap;html=1;" vertex="1" parent="1">
          <mxGeometry x="-890" y="-235" width="120" height="80" as="geometry" />
        </mxCell>
        <mxCell id="VmOOmBebYZ8hfPtJdQcS-66" value="&lt;font style=&quot;font-size: 13px;&quot;&gt;Supplier_Id&lt;/font&gt;" style="ellipse;whiteSpace=wrap;html=1;" vertex="1" parent="1">
          <mxGeometry x="-1067" y="-221" width="120" height="80" as="geometry" />
        </mxCell>
        <mxCell id="VmOOmBebYZ8hfPtJdQcS-67" style="edgeStyle=orthogonalEdgeStyle;rounded=0;orthogonalLoop=1;jettySize=auto;html=1;exitX=0.25;exitY=1;exitDx=0;exitDy=0;entryX=0.606;entryY=-0.038;entryDx=0;entryDy=0;entryPerimeter=0;" edge="1" parent="1" source="VmOOmBebYZ8hfPtJdQcS-36" target="VmOOmBebYZ8hfPtJdQcS-37">
          <mxGeometry relative="1" as="geometry" />
        </mxCell>
        <mxCell id="VmOOmBebYZ8hfPtJdQcS-68" value="ADMIN_ROLE" style="ellipse;whiteSpace=wrap;html=1;" vertex="1" parent="1">
          <mxGeometry x="-1367" y="-205" width="120" height="80" as="geometry" />
        </mxCell>
        <mxCell id="VmOOmBebYZ8hfPtJdQcS-69" value="ADMIN_NAME" style="ellipse;whiteSpace=wrap;html=1;" vertex="1" parent="1">
          <mxGeometry x="-1547" y="-341" width="120" height="80" as="geometry" />
        </mxCell>
        <mxCell id="VmOOmBebYZ8hfPtJdQcS-70" value="ADMIN_ID" style="ellipse;whiteSpace=wrap;html=1;" vertex="1" parent="1">
          <mxGeometry x="-1367" y="-446" width="120" height="80" as="geometry" />
        </mxCell>
        <mxCell id="VmOOmBebYZ8hfPtJdQcS-71" value="APP Name" style="ellipse;whiteSpace=wrap;html=1;" vertex="1" parent="1">
          <mxGeometry x="-1032.0033333333336" y="-456" width="120" height="80" as="geometry" />
        </mxCell>
        <mxCell id="VmOOmBebYZ8hfPtJdQcS-72" value="PRODUCT_ID" style="ellipse;whiteSpace=wrap;html=1;" vertex="1" parent="1">
          <mxGeometry x="-755" y="-421" width="110" height="55" as="geometry" />
        </mxCell>
        <mxCell id="VmOOmBebYZ8hfPtJdQcS-73" value="PRODUCT_NAME" style="ellipse;whiteSpace=wrap;html=1;" vertex="1" parent="1">
          <mxGeometry x="-630" y="-421" width="110" height="55" as="geometry" />
        </mxCell>
        <mxCell id="VmOOmBebYZ8hfPtJdQcS-74" style="edgeStyle=orthogonalEdgeStyle;rounded=0;orthogonalLoop=1;jettySize=auto;html=1;exitX=0.75;exitY=0;exitDx=0;exitDy=0;entryX=0.358;entryY=1.027;entryDx=0;entryDy=0;entryPerimeter=0;" edge="1" parent="1" source="VmOOmBebYZ8hfPtJdQcS-61">
          <mxGeometry relative="1" as="geometry">
            <mxPoint x="-585.6199999999999" y="-363.5149999999999" as="targetPoint" />
          </mxGeometry>
        </mxCell>
      </root>
    </mxGraphModel>
  </diagram>
  <diagram id="6ue-S9W29-aRpNWjwn74" name="UseCase_Diagram">
    <mxGraphModel grid="1" page="1" gridSize="10" guides="1" tooltips="1" connect="1" arrows="1" fold="1" pageScale="1" pageWidth="850" pageHeight="1100" math="0" shadow="0">
      <root>
        <mxCell id="0" />
        <mxCell id="1" parent="0" />
        <mxCell id="qVKoPEykGWOR0I72Hy1K-1" value="CUSTOMER" style="shape=umlActor;verticalLabelPosition=bottom;verticalAlign=top;html=1;outlineConnect=0;" vertex="1" parent="1">
          <mxGeometry x="-176" y="765" width="40" height="70" as="geometry" />
        </mxCell>
        <mxCell id="qVKoPEykGWOR0I72Hy1K-11" value="Service Authentication" style="shape=umlActor;verticalLabelPosition=bottom;verticalAlign=top;html=1;outlineConnect=0;" vertex="1" parent="1">
          <mxGeometry x="1024" y="481" width="40" height="79" as="geometry" />
        </mxCell>
        <mxCell id="qVKoPEykGWOR0I72Hy1K-32" value="&lt;font style=&quot;font-size: 34px;&quot;&gt;&lt;b&gt;&lt;i&gt;&lt;u&gt;UseCase Diagram&lt;/u&gt;&lt;/i&gt;&lt;/b&gt;&lt;/font&gt;" style="text;html=1;align=center;verticalAlign=middle;resizable=0;points=[];autosize=1;strokeColor=none;fillColor=none;" vertex="1" parent="1">
          <mxGeometry x="275" y="118" width="310" height="50" as="geometry" />
        </mxCell>
        <mxCell id="AYMQ-CrFwESMXjXsQyHi-2" value="New User" style="shape=umlActor;verticalLabelPosition=bottom;verticalAlign=top;html=1;outlineConnect=0;" vertex="1" parent="1">
          <mxGeometry x="-56" y="640" width="40" height="70" as="geometry" />
        </mxCell>
        <mxCell id="AYMQ-CrFwESMXjXsQyHi-3" value="Existing User" style="shape=umlActor;verticalLabelPosition=bottom;verticalAlign=top;html=1;outlineConnect=0;" vertex="1" parent="1">
          <mxGeometry x="-56" y="880" width="40" height="70" as="geometry" />
        </mxCell>
        <mxCell id="AYMQ-CrFwESMXjXsQyHi-4" value="Paypal" style="shape=umlActor;verticalLabelPosition=bottom;verticalAlign=top;html=1;outlineConnect=0;" vertex="1" parent="1">
          <mxGeometry x="1024" y="960" width="40" height="80" as="geometry" />
        </mxCell>
        <mxCell id="AYMQ-CrFwESMXjXsQyHi-5" value="Identity Provider" style="shape=umlActor;verticalLabelPosition=bottom;verticalAlign=top;html=1;outlineConnect=0;" vertex="1" parent="1">
          <mxGeometry x="1024" y="640" width="40" height="80" as="geometry" />
        </mxCell>
        <mxCell id="AYMQ-CrFwESMXjXsQyHi-6" value="Credit Payment&lt;div&gt;service&lt;/div&gt;" style="shape=umlActor;verticalLabelPosition=bottom;verticalAlign=top;html=1;outlineConnect=0;" vertex="1" parent="1">
          <mxGeometry x="1024" y="800" width="40" height="80" as="geometry" />
        </mxCell>
        <mxCell id="AYMQ-CrFwESMXjXsQyHi-7" value="&lt;font style=&quot;font-size: 16px;&quot;&gt;Make purchase&lt;/font&gt;" style="ellipse;whiteSpace=wrap;html=1;fillColor=#dae8fc;strokeColor=#6c8ebf;" vertex="1" parent="1">
          <mxGeometry x="384" y="760" width="120" height="80" as="geometry" />
        </mxCell>
        <mxCell id="AYMQ-CrFwESMXjXsQyHi-8" value="&lt;font style=&quot;font-size: 16px;&quot;&gt;Client Register&lt;/font&gt;" style="ellipse;whiteSpace=wrap;html=1;fillColor=#dae8fc;strokeColor=#6c8ebf;" vertex="1" parent="1">
          <mxGeometry x="384" y="1000" width="120" height="80" as="geometry" />
        </mxCell>
        <mxCell id="AYMQ-CrFwESMXjXsQyHi-9" value="&lt;font style=&quot;font-size: 16px;&quot;&gt;Ceckout&lt;/font&gt;" style="ellipse;whiteSpace=wrap;html=1;fillColor=#dae8fc;strokeColor=#6c8ebf;" vertex="1" parent="1">
          <mxGeometry x="384" y="880" width="120" height="80" as="geometry" />
        </mxCell>
        <mxCell id="AYMQ-CrFwESMXjXsQyHi-10" value="&lt;font style=&quot;font-size: 16px;&quot;&gt;Client register&lt;/font&gt;" style="ellipse;whiteSpace=wrap;html=1;fillColor=#dae8fc;strokeColor=#6c8ebf;" vertex="1" parent="1">
          <mxGeometry x="744" y="401" width="120" height="80" as="geometry" />
        </mxCell>
        <mxCell id="AYMQ-CrFwESMXjXsQyHi-11" value="&lt;font style=&quot;font-size: 16px;&quot;&gt;View items&lt;/font&gt;" style="ellipse;whiteSpace=wrap;html=1;fillColor=#dae8fc;strokeColor=#6c8ebf;" vertex="1" parent="1">
          <mxGeometry x="384" y="640" width="120" height="80" as="geometry" />
        </mxCell>
        <mxCell id="AYMQ-CrFwESMXjXsQyHi-12" value="&lt;font style=&quot;font-size: 16px;&quot;&gt;Add item to cart&lt;/font&gt;" style="ellipse;whiteSpace=wrap;html=1;fillColor=#dae8fc;strokeColor=#6c8ebf;" vertex="1" parent="1">
          <mxGeometry x="384" y="520" width="120" height="80" as="geometry" />
        </mxCell>
        <mxCell id="AYMQ-CrFwESMXjXsQyHi-13" value="&lt;font style=&quot;font-size: 16px;&quot;&gt;Edit item in cart&lt;/font&gt;" style="ellipse;whiteSpace=wrap;html=1;fillColor=#dae8fc;strokeColor=#6c8ebf;" vertex="1" parent="1">
          <mxGeometry x="384" y="401" width="120" height="80" as="geometry" />
        </mxCell>
        <mxCell id="AYMQ-CrFwESMXjXsQyHi-14" value="&lt;font style=&quot;font-size: 16px;&quot;&gt;Delete item in cart&lt;/font&gt;" style="ellipse;whiteSpace=wrap;html=1;fillColor=#dae8fc;strokeColor=#6c8ebf;" vertex="1" parent="1">
          <mxGeometry x="384" y="280" width="120" height="80" as="geometry" />
        </mxCell>
        <mxCell id="AYMQ-CrFwESMXjXsQyHi-15" value="&lt;font style=&quot;font-size: 16px;&quot;&gt;Manage Cart&lt;/font&gt;" style="ellipse;whiteSpace=wrap;html=1;fillColor=#dae8fc;strokeColor=#6c8ebf;" vertex="1" parent="1">
          <mxGeometry x="94" y="401" width="120" height="80" as="geometry" />
        </mxCell>
        <mxCell id="AYMQ-CrFwESMXjXsQyHi-16" style="edgeStyle=orthogonalEdgeStyle;rounded=0;orthogonalLoop=1;jettySize=auto;html=1;exitX=0.5;exitY=0.5;exitDx=0;exitDy=0;exitPerimeter=0;entryX=0;entryY=0.3333333333333333;entryDx=0;entryDy=0;entryPerimeter=0;" edge="1" parent="1" source="qVKoPEykGWOR0I72Hy1K-1" target="AYMQ-CrFwESMXjXsQyHi-2">
          <mxGeometry relative="1" as="geometry" />
        </mxCell>
        <mxCell id="AYMQ-CrFwESMXjXsQyHi-17" style="edgeStyle=orthogonalEdgeStyle;rounded=0;orthogonalLoop=1;jettySize=auto;html=1;exitX=0.5;exitY=0.5;exitDx=0;exitDy=0;exitPerimeter=0;entryX=0;entryY=0.3333333333333333;entryDx=0;entryDy=0;entryPerimeter=0;" edge="1" parent="1" source="qVKoPEykGWOR0I72Hy1K-1" target="AYMQ-CrFwESMXjXsQyHi-3">
          <mxGeometry relative="1" as="geometry" />
        </mxCell>
        <mxCell id="AYMQ-CrFwESMXjXsQyHi-18" value="" style="whiteSpace=wrap;html=1;aspect=fixed;fillColor=none;" vertex="1" parent="1">
          <mxGeometry x="50" y="240" width="860" height="860" as="geometry" />
        </mxCell>
        <mxCell id="Za6Ks0Gm1cYeyubi0FGL-1" value="" style="endArrow=none;html=1;rounded=0;entryX=1;entryY=0.3333333333333333;entryDx=0;entryDy=0;entryPerimeter=0;exitX=0;exitY=1;exitDx=0;exitDy=0;" edge="1" parent="1" source="AYMQ-CrFwESMXjXsQyHi-15" target="AYMQ-CrFwESMXjXsQyHi-2">
          <mxGeometry width="50" height="50" relative="1" as="geometry">
            <mxPoint x="464" y="800" as="sourcePoint" />
            <mxPoint x="484" y="740" as="targetPoint" />
          </mxGeometry>
        </mxCell>
        <mxCell id="Za6Ks0Gm1cYeyubi0FGL-3" value="" style="endArrow=none;html=1;rounded=0;exitX=1;exitY=0.3333333333333333;exitDx=0;exitDy=0;exitPerimeter=0;entryX=0;entryY=0.5;entryDx=0;entryDy=0;" edge="1" parent="1" source="AYMQ-CrFwESMXjXsQyHi-2" target="AYMQ-CrFwESMXjXsQyHi-11">
          <mxGeometry width="50" height="50" relative="1" as="geometry">
            <mxPoint x="464" y="800" as="sourcePoint" />
            <mxPoint x="514" y="750" as="targetPoint" />
          </mxGeometry>
        </mxCell>
        <mxCell id="Za6Ks0Gm1cYeyubi0FGL-4" value="" style="endArrow=none;html=1;rounded=0;entryX=0;entryY=0.5;entryDx=0;entryDy=0;exitX=1;exitY=0.3333333333333333;exitDx=0;exitDy=0;exitPerimeter=0;" edge="1" parent="1" source="AYMQ-CrFwESMXjXsQyHi-2" target="AYMQ-CrFwESMXjXsQyHi-7">
          <mxGeometry width="50" height="50" relative="1" as="geometry">
            <mxPoint x="-6" y="670" as="sourcePoint" />
            <mxPoint x="394" y="690" as="targetPoint" />
          </mxGeometry>
        </mxCell>
        <mxCell id="Za6Ks0Gm1cYeyubi0FGL-5" value="" style="endArrow=none;html=1;rounded=0;exitX=1;exitY=0.3333333333333333;exitDx=0;exitDy=0;exitPerimeter=0;entryX=0;entryY=0.5;entryDx=0;entryDy=0;" edge="1" parent="1" source="AYMQ-CrFwESMXjXsQyHi-3" target="AYMQ-CrFwESMXjXsQyHi-11">
          <mxGeometry width="50" height="50" relative="1" as="geometry">
            <mxPoint x="4" y="683" as="sourcePoint" />
            <mxPoint x="394" y="810" as="targetPoint" />
          </mxGeometry>
        </mxCell>
        <mxCell id="Za6Ks0Gm1cYeyubi0FGL-6" value="" style="endArrow=none;html=1;rounded=0;entryX=0;entryY=0.5;entryDx=0;entryDy=0;" edge="1" parent="1" target="AYMQ-CrFwESMXjXsQyHi-8">
          <mxGeometry width="50" height="50" relative="1" as="geometry">
            <mxPoint x="-16" y="900" as="sourcePoint" />
            <mxPoint x="404" y="820" as="targetPoint" />
          </mxGeometry>
        </mxCell>
        <mxCell id="Za6Ks0Gm1cYeyubi0FGL-8" value="" style="endArrow=none;html=1;rounded=0;exitX=1;exitY=0.5;exitDx=0;exitDy=0;entryX=0;entryY=0.3333333333333333;entryDx=0;entryDy=0;entryPerimeter=0;" edge="1" parent="1" source="AYMQ-CrFwESMXjXsQyHi-10" target="qVKoPEykGWOR0I72Hy1K-11">
          <mxGeometry width="50" height="50" relative="1" as="geometry">
            <mxPoint x="844" y="423" as="sourcePoint" />
            <mxPoint x="1234" y="550" as="targetPoint" />
          </mxGeometry>
        </mxCell>
        <mxCell id="Za6Ks0Gm1cYeyubi0FGL-10" value="" style="endArrow=none;html=1;rounded=0;exitX=1;exitY=0.5;exitDx=0;exitDy=0;entryX=0;entryY=0.3333333333333333;entryDx=0;entryDy=0;entryPerimeter=0;" edge="1" parent="1" source="AYMQ-CrFwESMXjXsQyHi-11" target="qVKoPEykGWOR0I72Hy1K-11">
          <mxGeometry width="50" height="50" relative="1" as="geometry">
            <mxPoint x="624" y="570" as="sourcePoint" />
            <mxPoint x="1014" y="697" as="targetPoint" />
          </mxGeometry>
        </mxCell>
        <mxCell id="Za6Ks0Gm1cYeyubi0FGL-11" value="" style="endArrow=none;html=1;rounded=0;exitX=1;exitY=0.3333333333333333;exitDx=0;exitDy=0;exitPerimeter=0;entryX=0;entryY=0.3333333333333333;entryDx=0;entryDy=0;entryPerimeter=0;" edge="1" parent="1" target="AYMQ-CrFwESMXjXsQyHi-5">
          <mxGeometry width="50" height="50" relative="1" as="geometry">
            <mxPoint x="504" y="680" as="sourcePoint" />
            <mxPoint x="894" y="807" as="targetPoint" />
          </mxGeometry>
        </mxCell>
        <mxCell id="Za6Ks0Gm1cYeyubi0FGL-12" value="" style="endArrow=none;html=1;rounded=0;exitX=1;exitY=0.5;exitDx=0;exitDy=0;entryX=0;entryY=0.3333333333333333;entryDx=0;entryDy=0;entryPerimeter=0;" edge="1" parent="1" source="AYMQ-CrFwESMXjXsQyHi-7" target="AYMQ-CrFwESMXjXsQyHi-5">
          <mxGeometry width="50" height="50" relative="1" as="geometry">
            <mxPoint x="504" y="760" as="sourcePoint" />
            <mxPoint x="894" y="887" as="targetPoint" />
          </mxGeometry>
        </mxCell>
        <mxCell id="Za6Ks0Gm1cYeyubi0FGL-13" value="" style="endArrow=none;html=1;rounded=0;exitX=1;exitY=0.5;exitDx=0;exitDy=0;entryX=0;entryY=0.3333333333333333;entryDx=0;entryDy=0;entryPerimeter=0;" edge="1" parent="1" source="AYMQ-CrFwESMXjXsQyHi-9" target="AYMQ-CrFwESMXjXsQyHi-5">
          <mxGeometry width="50" height="50" relative="1" as="geometry">
            <mxPoint x="534" y="840" as="sourcePoint" />
            <mxPoint x="1014" y="790" as="targetPoint" />
          </mxGeometry>
        </mxCell>
        <mxCell id="Za6Ks0Gm1cYeyubi0FGL-14" value="" style="endArrow=none;html=1;rounded=0;exitX=1;exitY=0.5;exitDx=0;exitDy=0;entryX=0;entryY=0.3333333333333333;entryDx=0;entryDy=0;entryPerimeter=0;" edge="1" parent="1" source="AYMQ-CrFwESMXjXsQyHi-9" target="AYMQ-CrFwESMXjXsQyHi-6">
          <mxGeometry width="50" height="50" relative="1" as="geometry">
            <mxPoint x="554" y="880" as="sourcePoint" />
            <mxPoint x="944" y="1007" as="targetPoint" />
          </mxGeometry>
        </mxCell>
        <mxCell id="Za6Ks0Gm1cYeyubi0FGL-15" value="" style="endArrow=none;html=1;rounded=0;entryX=0;entryY=0.3333333333333333;entryDx=0;entryDy=0;entryPerimeter=0;exitX=1;exitY=0.5;exitDx=0;exitDy=0;" edge="1" parent="1" source="AYMQ-CrFwESMXjXsQyHi-9" target="AYMQ-CrFwESMXjXsQyHi-4">
          <mxGeometry width="50" height="50" relative="1" as="geometry">
            <mxPoint x="534" y="950" as="sourcePoint" />
            <mxPoint x="894" y="1047" as="targetPoint" />
          </mxGeometry>
        </mxCell>
      </root>
    </mxGraphModel>
  </diagram>
  <diagram id="4A4whmF958m6CBXMg8iU" name="Sequence_Diagram">
    <mxGraphModel grid="1" page="1" gridSize="10" guides="1" tooltips="1" connect="1" arrows="1" fold="1" pageScale="1" pageWidth="850" pageHeight="1100" math="0" shadow="0">
      <root>
        <mxCell id="0" />
        <mxCell id="1" parent="0" />
        <mxCell id="70iyC16QtrKFM57JxAOC-7" value="Customer" style="shape=umlLifeline;perimeter=lifelinePerimeter;whiteSpace=wrap;html=1;container=1;dropTarget=0;collapsible=0;recursiveResize=0;outlineConnect=0;portConstraint=eastwest;newEdgeStyle={&quot;curved&quot;:0,&quot;rounded&quot;:0};participant=umlActor;size=80;strokeWidth=4;" vertex="1" parent="1">
          <mxGeometry x="80" y="120" width="40" height="850" as="geometry" />
        </mxCell>
        <mxCell id="nr2lHkvP93RBeORancZ9-45" value="" style="shape=umlDestroy;whiteSpace=wrap;html=1;strokeWidth=3;targetShapes=umlLifeline;" vertex="1" parent="70iyC16QtrKFM57JxAOC-7">
          <mxGeometry x="5" y="820" width="30" height="30" as="geometry" />
        </mxCell>
        <mxCell id="70iyC16QtrKFM57JxAOC-8" value="&lt;span style=&quot;font-size: 14px;&quot;&gt;Cart Management&amp;nbsp;&lt;/span&gt;" style="shape=umlLifeline;perimeter=lifelinePerimeter;whiteSpace=wrap;html=1;container=1;dropTarget=0;collapsible=0;recursiveResize=0;outlineConnect=0;portConstraint=eastwest;newEdgeStyle={&quot;curved&quot;:0,&quot;rounded&quot;:0};strokeWidth=4;" vertex="1" parent="1">
          <mxGeometry x="500" y="120" width="100" height="850" as="geometry" />
        </mxCell>
        <mxCell id="nr2lHkvP93RBeORancZ9-43" value="" style="shape=umlDestroy;whiteSpace=wrap;html=1;strokeWidth=3;targetShapes=umlLifeline;" vertex="1" parent="70iyC16QtrKFM57JxAOC-8">
          <mxGeometry x="35" y="820" width="30" height="30" as="geometry" />
        </mxCell>
        <mxCell id="70iyC16QtrKFM57JxAOC-9" value="&lt;span style=&quot;font-size: 14px;&quot;&gt;Purchase Items&lt;/span&gt;" style="shape=umlLifeline;perimeter=lifelinePerimeter;whiteSpace=wrap;html=1;container=1;dropTarget=0;collapsible=0;recursiveResize=0;outlineConnect=0;portConstraint=eastwest;newEdgeStyle={&quot;curved&quot;:0,&quot;rounded&quot;:0};strokeWidth=4;" vertex="1" parent="1">
          <mxGeometry x="660" y="120" width="100" height="850" as="geometry" />
        </mxCell>
        <mxCell id="nr2lHkvP93RBeORancZ9-44" value="" style="shape=umlDestroy;whiteSpace=wrap;html=1;strokeWidth=3;targetShapes=umlLifeline;" vertex="1" parent="70iyC16QtrKFM57JxAOC-9">
          <mxGeometry x="35" y="820" width="30" height="30" as="geometry" />
        </mxCell>
        <mxCell id="70iyC16QtrKFM57JxAOC-10" value="&lt;span style=&quot;font-size: 14px;&quot;&gt;Product Database&lt;/span&gt;" style="shape=umlLifeline;perimeter=lifelinePerimeter;whiteSpace=wrap;html=1;container=1;dropTarget=0;collapsible=0;recursiveResize=0;outlineConnect=0;portConstraint=eastwest;newEdgeStyle={&quot;curved&quot;:0,&quot;rounded&quot;:0};strokeWidth=4;" vertex="1" parent="1">
          <mxGeometry x="340" y="120" width="100" height="850" as="geometry" />
        </mxCell>
        <mxCell id="nr2lHkvP93RBeORancZ9-42" value="" style="shape=umlDestroy;whiteSpace=wrap;html=1;strokeWidth=3;targetShapes=umlLifeline;" vertex="1" parent="70iyC16QtrKFM57JxAOC-10">
          <mxGeometry x="35" y="820" width="30" height="30" as="geometry" />
        </mxCell>
        <mxCell id="70iyC16QtrKFM57JxAOC-11" value="&lt;span style=&quot;font-size: 14px;&quot;&gt;Online Shopping Cart&lt;/span&gt;" style="shape=umlLifeline;perimeter=lifelinePerimeter;whiteSpace=wrap;html=1;container=1;dropTarget=0;collapsible=0;recursiveResize=0;outlineConnect=0;portConstraint=eastwest;newEdgeStyle={&quot;curved&quot;:0,&quot;rounded&quot;:0};perimeterSpacing=12;strokeWidth=4;" vertex="1" parent="1">
          <mxGeometry x="180" y="120" width="100" height="850" as="geometry" />
        </mxCell>
        <mxCell id="nr2lHkvP93RBeORancZ9-46" value="" style="shape=umlDestroy;whiteSpace=wrap;html=1;strokeWidth=3;targetShapes=umlLifeline;" vertex="1" parent="70iyC16QtrKFM57JxAOC-11">
          <mxGeometry x="35" y="820" width="30" height="30" as="geometry" />
        </mxCell>
        <mxCell id="70iyC16QtrKFM57JxAOC-13" value="" style="endArrow=classic;html=1;rounded=0;" edge="1" parent="1" target="70iyC16QtrKFM57JxAOC-11">
          <mxGeometry width="50" height="50" relative="1" as="geometry">
            <mxPoint x="100" y="210" as="sourcePoint" />
            <mxPoint x="150" y="160" as="targetPoint" />
          </mxGeometry>
        </mxCell>
        <mxCell id="70iyC16QtrKFM57JxAOC-14" value="Login Details" style="text;html=1;align=center;verticalAlign=middle;resizable=0;points=[];autosize=1;strokeColor=none;fillColor=none;" vertex="1" parent="1">
          <mxGeometry x="115" y="188" width="90" height="30" as="geometry" />
        </mxCell>
        <mxCell id="gWdow4NmAiFgUU_Kuvqb-1" value="" style="endArrow=classic;html=1;rounded=0;" edge="1" parent="1" source="70iyC16QtrKFM57JxAOC-7">
          <mxGeometry width="50" height="50" relative="1" as="geometry">
            <mxPoint x="101" y="290" as="sourcePoint" />
            <mxPoint x="228" y="290" as="targetPoint" />
            <Array as="points">
              <mxPoint x="170" y="290" />
            </Array>
          </mxGeometry>
        </mxCell>
        <mxCell id="gWdow4NmAiFgUU_Kuvqb-4" value="" style="endArrow=classic;html=1;rounded=0;dashed=1;dashPattern=8 8;" edge="1" parent="1">
          <mxGeometry width="50" height="50" relative="1" as="geometry">
            <mxPoint x="225" y="250" as="sourcePoint" />
            <mxPoint x="98" y="250" as="targetPoint" />
          </mxGeometry>
        </mxCell>
        <mxCell id="gWdow4NmAiFgUU_Kuvqb-5" value="System Access" style="text;html=1;align=center;verticalAlign=middle;resizable=0;points=[];autosize=1;strokeColor=none;fillColor=none;" vertex="1" parent="1">
          <mxGeometry x="110" y="220" width="100" height="30" as="geometry" />
        </mxCell>
        <mxCell id="gWdow4NmAiFgUU_Kuvqb-7" value="" style="endArrow=classic;html=1;rounded=0;" edge="1" parent="1" target="70iyC16QtrKFM57JxAOC-10">
          <mxGeometry width="50" height="50" relative="1" as="geometry">
            <mxPoint x="230" y="320" as="sourcePoint" />
            <mxPoint x="357" y="320" as="targetPoint" />
            <Array as="points">
              <mxPoint x="299" y="320" />
            </Array>
          </mxGeometry>
        </mxCell>
        <mxCell id="gWdow4NmAiFgUU_Kuvqb-8" value="Responding" style="text;html=1;align=center;verticalAlign=middle;resizable=0;points=[];autosize=1;strokeColor=none;fillColor=none;" vertex="1" parent="1">
          <mxGeometry x="265" y="290" width="90" height="30" as="geometry" />
        </mxCell>
        <mxCell id="gWdow4NmAiFgUU_Kuvqb-9" value="" style="endArrow=classic;html=1;rounded=0;" edge="1" parent="1">
          <mxGeometry width="50" height="50" relative="1" as="geometry">
            <mxPoint x="228" y="503" as="sourcePoint" />
            <mxPoint x="388" y="503" as="targetPoint" />
            <Array as="points">
              <mxPoint x="297" y="503" />
            </Array>
          </mxGeometry>
        </mxCell>
        <mxCell id="gWdow4NmAiFgUU_Kuvqb-10" value="" style="endArrow=classic;html=1;rounded=0;dashed=1;dashPattern=8 8;" edge="1" parent="1" target="70iyC16QtrKFM57JxAOC-11">
          <mxGeometry width="50" height="50" relative="1" as="geometry">
            <mxPoint x="387" y="370" as="sourcePoint" />
            <mxPoint x="260" y="370" as="targetPoint" />
          </mxGeometry>
        </mxCell>
        <mxCell id="gWdow4NmAiFgUU_Kuvqb-11" value="List of Products" style="text;html=1;align=center;verticalAlign=middle;resizable=0;points=[];autosize=1;strokeColor=none;fillColor=none;" vertex="1" parent="1">
          <mxGeometry x="255" y="340" width="110" height="30" as="geometry" />
        </mxCell>
        <mxCell id="gWdow4NmAiFgUU_Kuvqb-2" value="Browse for Items" style="text;html=1;align=center;verticalAlign=middle;resizable=0;points=[];autosize=1;strokeColor=none;fillColor=none;" vertex="1" parent="1">
          <mxGeometry x="110" y="260" width="110" height="30" as="geometry" />
        </mxCell>
        <mxCell id="gWdow4NmAiFgUU_Kuvqb-15" value="Processing" style="text;html=1;align=center;verticalAlign=middle;resizable=0;points=[];autosize=1;strokeColor=none;fillColor=none;" vertex="1" parent="1">
          <mxGeometry x="270" y="473" width="80" height="30" as="geometry" />
        </mxCell>
        <mxCell id="gWdow4NmAiFgUU_Kuvqb-17" value="" style="endArrow=classic;html=1;rounded=0;" edge="1" parent="1">
          <mxGeometry width="50" height="50" relative="1" as="geometry">
            <mxPoint x="230.75" y="399" as="sourcePoint" />
            <mxPoint x="99.25" y="399" as="targetPoint" />
          </mxGeometry>
        </mxCell>
        <mxCell id="gWdow4NmAiFgUU_Kuvqb-18" value="List of Limited&lt;div&gt;offer&lt;/div&gt;" style="text;html=1;align=center;verticalAlign=middle;resizable=0;points=[];autosize=1;strokeColor=none;fillColor=none;" vertex="1" parent="1">
          <mxGeometry x="110" y="360" width="100" height="40" as="geometry" />
        </mxCell>
        <mxCell id="nr2lHkvP93RBeORancZ9-1" value="" style="endArrow=classic;html=1;rounded=0;" edge="1" parent="1">
          <mxGeometry width="50" height="50" relative="1" as="geometry">
            <mxPoint x="390" y="520" as="sourcePoint" />
            <mxPoint x="550" y="520" as="targetPoint" />
            <Array as="points">
              <mxPoint x="459" y="520" />
            </Array>
          </mxGeometry>
        </mxCell>
        <mxCell id="nr2lHkvP93RBeORancZ9-2" value="Add to Cart" style="text;html=1;align=center;verticalAlign=middle;resizable=0;points=[];autosize=1;strokeColor=none;fillColor=none;" vertex="1" parent="1">
          <mxGeometry x="430" y="488" width="80" height="30" as="geometry" />
        </mxCell>
        <mxCell id="nr2lHkvP93RBeORancZ9-5" value="" style="endArrow=classic;html=1;rounded=0;dashed=1;dashPattern=8 8;" edge="1" parent="1">
          <mxGeometry width="50" height="50" relative="1" as="geometry">
            <mxPoint x="548.5" y="560" as="sourcePoint" />
            <mxPoint x="391.5" y="560" as="targetPoint" />
          </mxGeometry>
        </mxCell>
        <mxCell id="nr2lHkvP93RBeORancZ9-6" value="List of item Chosen" style="text;html=1;align=center;verticalAlign=middle;resizable=0;points=[];autosize=1;strokeColor=none;fillColor=none;" vertex="1" parent="1">
          <mxGeometry x="405" y="535" width="130" height="30" as="geometry" />
        </mxCell>
        <mxCell id="nr2lHkvP93RBeORancZ9-7" value="" style="endArrow=classic;html=1;rounded=0;" edge="1" parent="1" target="70iyC16QtrKFM57JxAOC-11">
          <mxGeometry width="50" height="50" relative="1" as="geometry">
            <mxPoint x="230" y="600" as="sourcePoint" />
            <mxPoint x="390" y="600" as="targetPoint" />
            <Array as="points">
              <mxPoint x="390" y="600" />
            </Array>
          </mxGeometry>
        </mxCell>
        <mxCell id="nr2lHkvP93RBeORancZ9-8" value="Item Details" style="text;html=1;align=center;verticalAlign=middle;resizable=0;points=[];autosize=1;strokeColor=none;fillColor=none;" vertex="1" parent="1">
          <mxGeometry x="265" y="565" width="90" height="30" as="geometry" />
        </mxCell>
        <mxCell id="nr2lHkvP93RBeORancZ9-9" value="" style="endArrow=classic;html=1;rounded=0;" edge="1" parent="1" source="70iyC16QtrKFM57JxAOC-7">
          <mxGeometry width="50" height="50" relative="1" as="geometry">
            <mxPoint x="110.00153846153833" y="450" as="sourcePoint" />
            <mxPoint x="229.54" y="450" as="targetPoint" />
            <Array as="points">
              <mxPoint x="163.54" y="450" />
            </Array>
          </mxGeometry>
        </mxCell>
        <mxCell id="nr2lHkvP93RBeORancZ9-10" value="Choose items" style="text;html=1;align=center;verticalAlign=middle;resizable=0;points=[];autosize=1;strokeColor=none;fillColor=none;" vertex="1" parent="1">
          <mxGeometry x="110" y="420" width="100" height="30" as="geometry" />
        </mxCell>
        <mxCell id="nr2lHkvP93RBeORancZ9-11" value="" style="endArrow=classic;html=1;rounded=0;" edge="1" parent="1">
          <mxGeometry width="50" height="50" relative="1" as="geometry">
            <mxPoint x="100" y="640" as="sourcePoint" />
            <mxPoint x="100" y="640" as="targetPoint" />
            <Array as="points">
              <mxPoint x="230" y="640" />
            </Array>
          </mxGeometry>
        </mxCell>
        <mxCell id="nr2lHkvP93RBeORancZ9-12" value="Purchase Items?" style="text;html=1;align=center;verticalAlign=middle;resizable=0;points=[];autosize=1;strokeColor=none;fillColor=none;" vertex="1" parent="1">
          <mxGeometry x="105" y="610" width="110" height="30" as="geometry" />
        </mxCell>
        <mxCell id="nr2lHkvP93RBeORancZ9-15" value="Alternative" style="shape=umlFrame;whiteSpace=wrap;html=1;pointerEvents=0;width=80;height=20;" vertex="1" parent="1">
          <mxGeometry x="40" y="660" width="720" height="210" as="geometry" />
        </mxCell>
        <mxCell id="nr2lHkvP93RBeORancZ9-18" value="" style="endArrow=none;html=1;rounded=0;dashed=1;strokeWidth=2;" edge="1" parent="1">
          <mxGeometry width="50" height="50" relative="1" as="geometry">
            <mxPoint x="60" y="760" as="sourcePoint" />
            <mxPoint x="740" y="760" as="targetPoint" />
            <Array as="points" />
          </mxGeometry>
        </mxCell>
        <mxCell id="nr2lHkvP93RBeORancZ9-19" value="[Purchase]" style="text;html=1;align=center;verticalAlign=middle;resizable=0;points=[];autosize=1;strokeColor=none;fillColor=none;" vertex="1" parent="1">
          <mxGeometry x="30" y="688" width="80" height="30" as="geometry" />
        </mxCell>
        <mxCell id="nr2lHkvP93RBeORancZ9-20" value="[Else]" style="text;html=1;align=center;verticalAlign=middle;resizable=0;points=[];autosize=1;strokeColor=none;fillColor=none;" vertex="1" parent="1">
          <mxGeometry x="45" y="778" width="50" height="30" as="geometry" />
        </mxCell>
        <mxCell id="nr2lHkvP93RBeORancZ9-21" value="Processing" style="text;html=1;align=center;verticalAlign=middle;resizable=0;points=[];autosize=1;strokeColor=none;fillColor=none;" vertex="1" parent="1">
          <mxGeometry x="270" y="688" width="80" height="30" as="geometry" />
        </mxCell>
        <mxCell id="nr2lHkvP93RBeORancZ9-22" value="" style="endArrow=classic;html=1;rounded=0;" edge="1" parent="1">
          <mxGeometry width="50" height="50" relative="1" as="geometry">
            <mxPoint x="234" y="718" as="sourcePoint" />
            <mxPoint x="386" y="718" as="targetPoint" />
            <Array as="points" />
          </mxGeometry>
        </mxCell>
        <mxCell id="nr2lHkvP93RBeORancZ9-23" value="" style="endArrow=classic;html=1;rounded=0;dashed=1;dashPattern=8 8;" edge="1" parent="1">
          <mxGeometry width="50" height="50" relative="1" as="geometry">
            <mxPoint x="105.00153846153835" y="702.23" as="sourcePoint" />
            <mxPoint x="232.54" y="702.23" as="targetPoint" />
          </mxGeometry>
        </mxCell>
        <mxCell id="nr2lHkvP93RBeORancZ9-24" value="Yes" style="text;html=1;align=center;verticalAlign=middle;resizable=0;points=[];autosize=1;strokeColor=none;fillColor=none;" vertex="1" parent="1">
          <mxGeometry x="145" y="680" width="40" height="30" as="geometry" />
        </mxCell>
        <mxCell id="nr2lHkvP93RBeORancZ9-25" value="" style="endArrow=classic;html=1;rounded=0;" edge="1" parent="1">
          <mxGeometry width="50" height="50" relative="1" as="geometry">
            <mxPoint x="394" y="728" as="sourcePoint" />
            <mxPoint x="546" y="728" as="targetPoint" />
            <Array as="points" />
          </mxGeometry>
        </mxCell>
        <mxCell id="nr2lHkvP93RBeORancZ9-26" value="" style="endArrow=classic;html=1;rounded=0;" edge="1" parent="1">
          <mxGeometry width="50" height="50" relative="1" as="geometry">
            <mxPoint x="550" y="750" as="sourcePoint" />
            <mxPoint x="710" y="750" as="targetPoint" />
            <Array as="points" />
          </mxGeometry>
        </mxCell>
        <mxCell id="nr2lHkvP93RBeORancZ9-27" value="Calculating Total payment" style="text;html=1;align=center;verticalAlign=middle;resizable=0;points=[];autosize=1;strokeColor=none;fillColor=none;" vertex="1" parent="1">
          <mxGeometry x="390" y="698" width="160" height="30" as="geometry" />
        </mxCell>
        <mxCell id="nr2lHkvP93RBeORancZ9-28" value="Payment information" style="text;html=1;align=center;verticalAlign=middle;resizable=0;points=[];autosize=1;strokeColor=none;fillColor=none;" vertex="1" parent="1">
          <mxGeometry x="560" y="718" width="130" height="30" as="geometry" />
        </mxCell>
        <mxCell id="nr2lHkvP93RBeORancZ9-31" value="" style="endArrow=classic;html=1;rounded=0;dashed=1;dashPattern=8 8;" edge="1" parent="1">
          <mxGeometry width="50" height="50" relative="1" as="geometry">
            <mxPoint x="101.23153846153835" y="792.23" as="sourcePoint" />
            <mxPoint x="228.76999999999998" y="792.23" as="targetPoint" />
          </mxGeometry>
        </mxCell>
        <mxCell id="nr2lHkvP93RBeORancZ9-32" value="No" style="text;html=1;align=center;verticalAlign=middle;resizable=0;points=[];autosize=1;strokeColor=none;fillColor=none;" vertex="1" parent="1">
          <mxGeometry x="145" y="770" width="40" height="30" as="geometry" />
        </mxCell>
        <mxCell id="nr2lHkvP93RBeORancZ9-34" value="Processing" style="text;html=1;align=center;verticalAlign=middle;resizable=0;points=[];autosize=1;strokeColor=none;fillColor=none;" vertex="1" parent="1">
          <mxGeometry x="270" y="778" width="80" height="30" as="geometry" />
        </mxCell>
        <mxCell id="nr2lHkvP93RBeORancZ9-35" value="" style="endArrow=classic;html=1;rounded=0;" edge="1" parent="1">
          <mxGeometry width="50" height="50" relative="1" as="geometry">
            <mxPoint x="238" y="808" as="sourcePoint" />
            <mxPoint x="390" y="808" as="targetPoint" />
            <Array as="points" />
          </mxGeometry>
        </mxCell>
        <mxCell id="nr2lHkvP93RBeORancZ9-36" value="" style="endArrow=classic;html=1;rounded=0;" edge="1" parent="1">
          <mxGeometry width="50" height="50" relative="1" as="geometry">
            <mxPoint x="394" y="830" as="sourcePoint" />
            <mxPoint x="546" y="830" as="targetPoint" />
            <Array as="points" />
          </mxGeometry>
        </mxCell>
        <mxCell id="nr2lHkvP93RBeORancZ9-37" value="Item Saved on cart" style="text;html=1;align=center;verticalAlign=middle;resizable=0;points=[];autosize=1;strokeColor=none;fillColor=none;" vertex="1" parent="1">
          <mxGeometry x="410" y="808" width="120" height="30" as="geometry" />
        </mxCell>
        <mxCell id="nr2lHkvP93RBeORancZ9-38" value="" style="endArrow=classic;html=1;rounded=0;" edge="1" parent="1">
          <mxGeometry width="50" height="50" relative="1" as="geometry">
            <mxPoint x="550" y="860" as="sourcePoint" />
            <mxPoint x="102.46153846153834" y="860" as="targetPoint" />
            <Array as="points" />
          </mxGeometry>
        </mxCell>
        <mxCell id="nr2lHkvP93RBeORancZ9-39" value="Selected Items&lt;div&gt;Details&lt;/div&gt;" style="text;html=1;align=center;verticalAlign=middle;resizable=0;points=[];autosize=1;strokeColor=none;fillColor=none;" vertex="1" parent="1">
          <mxGeometry x="115" y="820" width="100" height="40" as="geometry" />
        </mxCell>
        <mxCell id="nr2lHkvP93RBeORancZ9-40" value="" style="endArrow=classic;html=1;rounded=0;" edge="1" parent="1" source="70iyC16QtrKFM57JxAOC-9">
          <mxGeometry width="50" height="50" relative="1" as="geometry">
            <mxPoint x="550" y="930" as="sourcePoint" />
            <mxPoint x="102.46153846153834" y="930" as="targetPoint" />
            <Array as="points" />
          </mxGeometry>
        </mxCell>
        <mxCell id="nr2lHkvP93RBeORancZ9-41" value="Payment and delivery&lt;div&gt;details&lt;/div&gt;" style="text;html=1;align=center;verticalAlign=middle;resizable=0;points=[];autosize=1;strokeColor=none;fillColor=none;" vertex="1" parent="1">
          <mxGeometry x="95" y="890" width="140" height="40" as="geometry" />
        </mxCell>
        <mxCell id="nr2lHkvP93RBeORancZ9-47" value="&lt;i style=&quot;&quot;&gt;&lt;u style=&quot;&quot;&gt;&lt;font style=&quot;font-size: 25px;&quot;&gt;&lt;b&gt;SEQUENCE DIAGRAM&lt;/b&gt;&lt;/font&gt;&lt;/u&gt;&lt;/i&gt;" style="text;html=1;align=center;verticalAlign=middle;resizable=0;points=[];autosize=1;strokeColor=none;fillColor=none;" vertex="1" parent="1">
          <mxGeometry x="255" y="23" width="290" height="40" as="geometry" />
        </mxCell>
      </root>
    </mxGraphModel>
  </diagram>
  <diagram id="62xU3MAspACSQRaPHAxK" name="DFD_lvl-0">
    <mxGraphModel grid="1" page="1" gridSize="10" guides="1" tooltips="1" connect="1" arrows="1" fold="1" pageScale="1" pageWidth="850" pageHeight="1100" math="0" shadow="0">
      <root>
        <mxCell id="0" />
        <mxCell id="1" parent="0" />
        <mxCell id="ilBPZUn9MH20ayniBa8h-1" value="Customer" style="rounded=0;whiteSpace=wrap;html=1;" vertex="1" parent="1">
          <mxGeometry x="560" y="400" width="120" height="60" as="geometry" />
        </mxCell>
        <mxCell id="ilBPZUn9MH20ayniBa8h-2" value="Administrator" style="rounded=0;whiteSpace=wrap;html=1;" vertex="1" parent="1">
          <mxGeometry x="560" y="160" width="120" height="60" as="geometry" />
        </mxCell>
        <mxCell id="ilBPZUn9MH20ayniBa8h-11" style="edgeStyle=orthogonalEdgeStyle;rounded=0;orthogonalLoop=1;jettySize=auto;html=1;exitX=0.75;exitY=0;exitDx=0;exitDy=0;entryX=0;entryY=1;entryDx=0;entryDy=0;" edge="1" parent="1" source="ilBPZUn9MH20ayniBa8h-3" target="ilBPZUn9MH20ayniBa8h-5">
          <mxGeometry relative="1" as="geometry">
            <Array as="points">
              <mxPoint x="130" y="390" />
              <mxPoint x="332" y="390" />
            </Array>
          </mxGeometry>
        </mxCell>
        <mxCell id="ilBPZUn9MH20ayniBa8h-3" value="Customer" style="rounded=0;whiteSpace=wrap;html=1;" vertex="1" parent="1">
          <mxGeometry x="40" y="400" width="120" height="60" as="geometry" />
        </mxCell>
        <mxCell id="ilBPZUn9MH20ayniBa8h-4" value="Administrator" style="rounded=0;whiteSpace=wrap;html=1;" vertex="1" parent="1">
          <mxGeometry x="40" y="160" width="120" height="60" as="geometry" />
        </mxCell>
        <mxCell id="ilBPZUn9MH20ayniBa8h-6" style="edgeStyle=orthogonalEdgeStyle;rounded=0;orthogonalLoop=1;jettySize=auto;html=1;exitX=1;exitY=1;exitDx=0;exitDy=0;entryX=0;entryY=0.25;entryDx=0;entryDy=0;" edge="1" parent="1" source="ilBPZUn9MH20ayniBa8h-5" target="ilBPZUn9MH20ayniBa8h-1">
          <mxGeometry relative="1" as="geometry" />
        </mxCell>
        <mxCell id="ilBPZUn9MH20ayniBa8h-7" value="Give item tracking details" style="edgeLabel;html=1;align=center;verticalAlign=middle;resizable=0;points=[];" connectable="0" vertex="1" parent="ilBPZUn9MH20ayniBa8h-6">
          <mxGeometry x="-0.1292" y="4" relative="1" as="geometry">
            <mxPoint as="offset" />
          </mxGeometry>
        </mxCell>
        <mxCell id="ilBPZUn9MH20ayniBa8h-8" style="edgeStyle=orthogonalEdgeStyle;rounded=0;orthogonalLoop=1;jettySize=auto;html=1;exitX=0.5;exitY=1;exitDx=0;exitDy=0;entryX=0;entryY=0.75;entryDx=0;entryDy=0;" edge="1" parent="1" source="ilBPZUn9MH20ayniBa8h-5" target="ilBPZUn9MH20ayniBa8h-1">
          <mxGeometry relative="1" as="geometry" />
        </mxCell>
        <mxCell id="ilBPZUn9MH20ayniBa8h-28" style="edgeStyle=orthogonalEdgeStyle;rounded=0;orthogonalLoop=1;jettySize=auto;html=1;exitX=0.5;exitY=0;exitDx=0;exitDy=0;entryX=0;entryY=0.25;entryDx=0;entryDy=0;" edge="1" parent="1" source="ilBPZUn9MH20ayniBa8h-5" target="ilBPZUn9MH20ayniBa8h-2">
          <mxGeometry relative="1" as="geometry" />
        </mxCell>
        <mxCell id="ilBPZUn9MH20ayniBa8h-5" value="ONLINE SHOPPING&lt;div&gt;SYSTEM&lt;/div&gt;" style="ellipse;whiteSpace=wrap;html=1;aspect=fixed;" vertex="1" parent="1">
          <mxGeometry x="310" y="240" width="150" height="150" as="geometry" />
        </mxCell>
        <mxCell id="ilBPZUn9MH20ayniBa8h-9" value="Generate Invoice" style="text;html=1;align=center;verticalAlign=middle;resizable=0;points=[];autosize=1;strokeColor=none;fillColor=none;" vertex="1" parent="1">
          <mxGeometry x="400" y="420" width="110" height="30" as="geometry" />
        </mxCell>
        <mxCell id="ilBPZUn9MH20ayniBa8h-12" value="Search product" style="text;html=1;align=center;verticalAlign=middle;resizable=0;points=[];autosize=1;strokeColor=none;fillColor=none;" vertex="1" parent="1">
          <mxGeometry x="220" y="370" width="100" height="30" as="geometry" />
        </mxCell>
        <mxCell id="ilBPZUn9MH20ayniBa8h-17" style="edgeStyle=orthogonalEdgeStyle;rounded=0;orthogonalLoop=1;jettySize=auto;html=1;exitX=1;exitY=0.25;exitDx=0;exitDy=0;entryX=0.347;entryY=1.012;entryDx=0;entryDy=0;entryPerimeter=0;" edge="1" parent="1" source="ilBPZUn9MH20ayniBa8h-3" target="ilBPZUn9MH20ayniBa8h-5">
          <mxGeometry relative="1" as="geometry">
            <Array as="points">
              <mxPoint x="160" y="430" />
              <mxPoint x="362" y="430" />
            </Array>
          </mxGeometry>
        </mxCell>
        <mxCell id="ilBPZUn9MH20ayniBa8h-18" value="Buy Product" style="text;html=1;align=center;verticalAlign=middle;resizable=0;points=[];autosize=1;strokeColor=none;fillColor=none;" vertex="1" parent="1">
          <mxGeometry x="235" y="398" width="90" height="30" as="geometry" />
        </mxCell>
        <mxCell id="ilBPZUn9MH20ayniBa8h-20" style="edgeStyle=orthogonalEdgeStyle;rounded=0;orthogonalLoop=1;jettySize=auto;html=1;exitX=0.5;exitY=0;exitDx=0;exitDy=0;entryX=0;entryY=0.58;entryDx=0;entryDy=0;entryPerimeter=0;" edge="1" parent="1" source="ilBPZUn9MH20ayniBa8h-3" target="ilBPZUn9MH20ayniBa8h-5">
          <mxGeometry relative="1" as="geometry" />
        </mxCell>
        <mxCell id="ilBPZUn9MH20ayniBa8h-21" value="Payment" style="text;html=1;align=center;verticalAlign=middle;resizable=0;points=[];autosize=1;strokeColor=none;fillColor=none;" vertex="1" parent="1">
          <mxGeometry x="180" y="298" width="70" height="30" as="geometry" />
        </mxCell>
        <mxCell id="ilBPZUn9MH20ayniBa8h-23" style="edgeStyle=orthogonalEdgeStyle;rounded=0;orthogonalLoop=1;jettySize=auto;html=1;exitX=1;exitY=0;exitDx=0;exitDy=0;entryX=0.197;entryY=0.063;entryDx=0;entryDy=0;entryPerimeter=0;" edge="1" parent="1" source="ilBPZUn9MH20ayniBa8h-4" target="ilBPZUn9MH20ayniBa8h-5">
          <mxGeometry relative="1" as="geometry" />
        </mxCell>
        <mxCell id="ilBPZUn9MH20ayniBa8h-24" value="Add/Modify products" style="text;html=1;align=center;verticalAlign=middle;resizable=0;points=[];autosize=1;strokeColor=none;fillColor=none;" vertex="1" parent="1">
          <mxGeometry x="175" y="108" width="130" height="30" as="geometry" />
        </mxCell>
        <mxCell id="ilBPZUn9MH20ayniBa8h-25" style="edgeStyle=orthogonalEdgeStyle;rounded=0;orthogonalLoop=1;jettySize=auto;html=1;exitX=1;exitY=0.25;exitDx=0;exitDy=0;entryX=0.016;entryY=0.292;entryDx=0;entryDy=0;entryPerimeter=0;" edge="1" parent="1" source="ilBPZUn9MH20ayniBa8h-4" target="ilBPZUn9MH20ayniBa8h-5">
          <mxGeometry relative="1" as="geometry" />
        </mxCell>
        <mxCell id="ilBPZUn9MH20ayniBa8h-26" value="Update item tracking" style="text;html=1;align=center;verticalAlign=middle;resizable=0;points=[];autosize=1;strokeColor=none;fillColor=none;" vertex="1" parent="1">
          <mxGeometry x="175" y="150" width="130" height="30" as="geometry" />
        </mxCell>
        <mxCell id="ilBPZUn9MH20ayniBa8h-29" value="MIS report" style="text;html=1;align=center;verticalAlign=middle;resizable=0;points=[];autosize=1;strokeColor=none;fillColor=none;" vertex="1" parent="1">
          <mxGeometry x="450" y="150" width="80" height="30" as="geometry" />
        </mxCell>
        <mxCell id="ilBPZUn9MH20ayniBa8h-30" value="&lt;span style=&quot;font-size: 20px;&quot;&gt;&lt;b&gt;&lt;i&gt;&lt;u&gt;DFD level-0&lt;/u&gt;&lt;/i&gt;&lt;/b&gt;&lt;/span&gt;" style="text;html=1;align=center;verticalAlign=middle;resizable=0;points=[];autosize=1;strokeColor=none;fillColor=none;" vertex="1" parent="1">
          <mxGeometry x="300" y="40" width="130" height="40" as="geometry" />
        </mxCell>
      </root>
    </mxGraphModel>
  </diagram>
  <diagram id="QglcXMEuXrP6gk3Zxl2A" name="DFD_lvl-1">
    <mxGraphModel grid="1" page="1" gridSize="10" guides="1" tooltips="1" connect="1" arrows="1" fold="1" pageScale="1" pageWidth="850" pageHeight="1100" math="0" shadow="0">
      <root>
        <mxCell id="0" />
        <mxCell id="1" parent="0" />
        <mxCell id="Ghx5dCiOLR05frZbPKU5-1" value="&lt;b&gt;&lt;i&gt;&lt;font style=&quot;font-size: 20px;&quot;&gt;&lt;u&gt;DFD level-1&lt;/u&gt;&lt;/font&gt;&lt;/i&gt;&lt;/b&gt;" style="text;html=1;align=center;verticalAlign=middle;resizable=0;points=[];autosize=1;strokeColor=none;fillColor=none;" vertex="1" parent="1">
          <mxGeometry x="295" y="13" width="130" height="40" as="geometry" />
        </mxCell>
        <mxCell id="Ghx5dCiOLR05frZbPKU5-2" value="" style="ellipse;whiteSpace=wrap;html=1;aspect=fixed;" vertex="1" parent="1">
          <mxGeometry x="460" y="220" width="80" height="80" as="geometry" />
        </mxCell>
        <mxCell id="Ghx5dCiOLR05frZbPKU5-3" value="" style="ellipse;whiteSpace=wrap;html=1;aspect=fixed;" vertex="1" parent="1">
          <mxGeometry x="460" y="430" width="80" height="80" as="geometry" />
        </mxCell>
        <mxCell id="Ghx5dCiOLR05frZbPKU5-4" value="" style="ellipse;whiteSpace=wrap;html=1;aspect=fixed;" vertex="1" parent="1">
          <mxGeometry x="215" y="460" width="80" height="80" as="geometry" />
        </mxCell>
        <mxCell id="Ghx5dCiOLR05frZbPKU5-5" value="" style="ellipse;whiteSpace=wrap;html=1;aspect=fixed;" vertex="1" parent="1">
          <mxGeometry x="300" y="200" width="80" height="80" as="geometry" />
        </mxCell>
        <mxCell id="Ghx5dCiOLR05frZbPKU5-6" value="" style="rounded=0;whiteSpace=wrap;html=1;" vertex="1" parent="1">
          <mxGeometry x="330" y="690" width="120" height="60" as="geometry" />
        </mxCell>
        <mxCell id="Ghx5dCiOLR05frZbPKU5-7" value="" style="rounded=0;whiteSpace=wrap;html=1;" vertex="1" parent="1">
          <mxGeometry x="810" y="510" width="120" height="60" as="geometry" />
        </mxCell>
        <mxCell id="Ghx5dCiOLR05frZbPKU5-8" value="" style="rounded=0;whiteSpace=wrap;html=1;" vertex="1" parent="1">
          <mxGeometry x="860" y="220" width="120" height="60" as="geometry" />
        </mxCell>
        <mxCell id="Ghx5dCiOLR05frZbPKU5-9" value="" style="rounded=0;whiteSpace=wrap;html=1;" vertex="1" parent="1">
          <mxGeometry y="200" width="120" height="60" as="geometry" />
        </mxCell>
      </root>
    </mxGraphModel>
  </diagram>
  <diagram id="SZOYt1X_tWnnptLz01Cg" name="DFD_lvl-2">
    <mxGraphModel grid="1" page="1" gridSize="10" guides="1" tooltips="1" connect="1" arrows="1" fold="1" pageScale="1" pageWidth="850" pageHeight="1100" math="0" shadow="0">
      <root>
        <mxCell id="0" />
        <mxCell id="1" parent="0" />
      </root>
    </mxGraphModel>
  </diagram>
</mxfile>
